<?xml version="1.0" encoding="utf-8"?><!-- Generator: Iparigrafika Gear Generator by Abel Vincze http://geargenerator.com/ -->
<svg version="1.2" class="svggear" xmlns="http://www.w3.org/2000/svg"  x="0px" y="0px" width="434px" height="434px" viewBox="-217 -217 434 434" overflow="scroll" xml:space="preserve"><polygon id="gearpoly3" data-id="3" class="gear" fill="#ddd" stroke="#444" stroke-width="1" stroke-miterlimit="10" points="198.75,0 199.344,-0.4601 199.6061,-0.512 199.8771,-0.5676 200.1571,-0.6271 200.446,-0.6907 200.7438,-0.7583 201.0503,-0.8302 201.3656,-0.9065 201.6897,-0.9873 202.0224,-1.0727 202.3637,-1.1629 202.7136,-1.258 203.072,-1.3581 203.4389,-1.4633 203.8141,-1.5737 204.1978,-1.6896 204.5897,-1.8109 204.9899,-1.9378 205.3983,-2.0705 205.8147,-2.2091 206.2392,-2.3536 206.6718,-2.5042 207.1122,-2.6611 207.5605,-2.8242 208.0166,-2.9939 208.4804,-3.1701 208.9519,-3.3529 209.431,-3.5426 209.9175,-3.7392 210.4115,-3.9428 210.9129,-4.1536 211.4216,-4.3716 211.9374,-4.597 212.4604,-4.8299 212.9905,-5.0703 213.5275,-5.3184 214.0714,-5.5744 214.6221,-5.8383 215.1795,-6.1101 215.7436,-6.3901 216.3142,-6.6784 216.5547,-6.9641 216.2837,-12.8769 216.018,-13.1395 215.4234,-13.3743 214.8361,-13.6015 214.2562,-13.8213 213.6836,-14.0337 213.1186,-14.2388 212.5611,-14.4367 212.0113,-14.6277 211.4692,-14.8117 210.9349,-14.989 210.4084,-15.1595 209.8899,-15.3235 209.3793,-15.4811 208.8768,-15.6324 208.3824,-15.7774 207.8961,-15.9164 207.4181,-16.0494 206.9484,-16.1766 206.4871,-16.2981 206.0341,-16.414 205.5897,-16.5244 205.1537,-16.6295 204.7263,-16.7294 204.3075,-16.8241 203.8974,-16.9139 203.496,-16.9989 203.1034,-17.0791 202.7196,-17.1548 202.3446,-17.226 201.9785,-17.2929 201.6214,-17.3555 201.2733,-17.4141 200.9342,-17.4688 200.6041,-17.5196 200.2831,-17.5667 199.9713,-17.6102 199.6686,-17.6504 199.3751,-17.6872 199.0909,-17.7209 198.8158,-17.7515 198.5501,-17.7792 197.9165,-18.183 197.1828,-24.91 197.7145,-25.4409 197.968,-25.5252 198.2299,-25.6144 198.5002,-25.7085 198.7789,-25.8078 199.0658,-25.9122 199.3609,-26.022 199.6642,-26.1372 199.9755,-26.2579 200.2949,-26.3844 200.6222,-26.5166 200.9575,-26.6548 201.3005,-26.799 201.6513,-26.9494 202.0098,-27.106 202.3759,-27.269 202.7495,-27.4385 203.1306,-27.6146 203.5191,-27.7974 203.9149,-27.9871 204.318,-28.1837 204.7282,-28.3873 205.1455,-28.5981 205.5699,-28.8162 206.0011,-29.0417 206.4392,-29.2746 206.884,-29.5151 207.3355,-29.7633 207.7936,-30.0194 208.2582,-30.2833 208.7292,-30.5552 209.2065,-30.8353 209.6901,-31.1236 210.1798,-31.4201 210.6755,-31.7251 211.1772,-32.0386 211.6847,-32.3607 212.198,-32.6915 212.717,-33.0311 213.2415,-33.3796 213.7715,-33.7371 213.9743,-34.0507 212.9643,-39.8829 212.6679,-40.1101 212.0485,-40.2686 211.4374,-40.4204 210.8344,-40.5657 210.2398,-40.7047 209.6535,-40.8373 209.0756,-40.9639 208.5062,-41.0844 207.9453,-41.1991 207.393,-41.3079 206.8493,-41.4112 206.3143,-41.5089 205.788,-41.6012 205.2705,-41.6883 204.7618,-41.7703 204.262,-41.8472 203.7711,-41.9193 203.2891,-41.9866 202.8162,-42.0493 202.3523,-42.1075 201.8975,-42.1613 201.4518,-42.2109 201.0152,-42.2564 200.5879,-42.298 200.1697,-42.3357 199.7609,-42.3697 199.3613,-42.4001 198.971,-42.427 198.5901,-42.4507 198.2185,-42.4711 197.8564,-42.4885 197.5036,-42.503 197.1603,-42.5147 196.8265,-42.5238 196.5021,-42.5303 196.1873,-42.5344 195.882,-42.5363 195.5862,-42.5361 195.2999,-42.5338 195.0233,-42.5297 194.7562,-42.5239 194.0769,-42.8451 192.5059,-49.4271 192.9668,-50.0205 193.2078,-50.1359 193.4565,-50.2572 193.7129,-50.3845 193.9769,-50.5179 194.2484,-50.6574 194.5275,-50.8033 194.8139,-50.9556 195.1077,-51.1145 195.4087,-51.2799 195.7169,-51.4522 196.0321,-51.6313 196.3544,-51.8173 196.6836,-52.0105 197.0196,-52.2108 197.3624,-52.4184 197.7118,-52.6334 198.0678,-52.8559 198.4304,-53.0859 198.7993,-53.3237 199.1745,-53.5693 199.556,-53.8227 199.9436,-54.0842 200.3373,-54.3537 200.7368,-54.6314 201.1423,-54.9174 201.5535,-55.2118 201.9703,-55.5147 202.3927,-55.8261 202.8205,-56.1462 203.2537,-56.475 203.6922,-56.8127 204.1358,-57.1593 204.5845,-57.5149 205.0381,-57.8796 205.4965,-58.2535 205.9597,-58.6367 206.4274,-59.0292 206.8997,-59.4311 207.3764,-59.8426 207.8575,-60.2637 208.0193,-60.6003 206.2864,-66.2599 205.9638,-66.4482 205.3295,-66.5278 204.7041,-66.6018 204.0877,-66.6704 203.4803,-66.7337 202.882,-66.7919 202.2928,-66.845 201.7128,-66.8932 201.142,-66.9366 200.5804,-66.9754 200.028,-67.0097 199.485,-67.0396 198.9513,-67.0653 198.4269,-67.0868 197.912,-67.1043 197.4065,-67.118 196.9104,-67.128 196.4238,-67.1344 195.9467,-67.1373 195.4792,-67.1369 195.0212,-67.1333 194.5728,-67.1267 194.134,-67.1171 193.7048,-67.1048 193.2853,-67.0898 192.8754,-67.0722 192.4751,-67.0523 192.0845,-67.0302 191.7036,-67.0059 191.3325,-66.9796 190.971,-66.9515 190.6192,-66.9217 190.2771,-66.8902 189.9448,-66.8574 189.6222,-66.8232 189.3093,-66.7878 189.0062,-66.7514 188.7127,-66.7141 188.429,-66.676 188.1551,-66.6373 187.8908,-66.598 187.1767,-66.8316 184.7931,-73.1648 185.176,-73.8112 185.4006,-73.9559 185.6321,-74.1074 185.8705,-74.2659 186.1157,-74.4313 186.3677,-74.6038 186.6262,-74.7835 186.8913,-74.9705 187.1629,-75.1649 187.4407,-75.3668 187.7249,-75.5763 188.0152,-75.7935 188.3116,-76.0185 188.614,-76.2514 188.9223,-76.4922 189.2363,-76.7411 189.5561,-76.9982 189.8814,-77.2636 190.2123,-77.5373 190.5485,-77.8194 190.89,-78.1101 191.2367,-78.4093 191.5885,-78.7173 191.9452,-79.034 192.3068,-79.3596 192.6732,-79.6942 193.0443,-80.0378 193.4199,-80.3905 193.7999,-80.7524 194.1842,-81.1236 194.5728,-81.5041 194.9655,-81.8941 195.3622,-82.2935 195.7627,-82.7026 196.167,-83.1213 196.575,-83.5497 196.9865,-83.9879 197.4014,-84.4359 197.8196,-84.8939 198.241,-85.3619 198.6654,-85.84 198.7838,-86.1942 196.3552,-91.592 196.0115,-91.7383 195.3722,-91.7378 194.7425,-91.7329 194.1224,-91.7237 193.5119,-91.7104 192.911,-91.6931 192.3198,-91.6719 191.7383,-91.6471 191.1665,-91.6186 190.6045,-91.5867 190.0522,-91.5515 189.5097,-91.5131 188.977,-91.4716 188.4541,-91.4273 187.941,-91.3802 187.4377,-91.3304 186.9443,-91.2781 186.4608,-91.2234 185.9871,-91.1666 185.5233,-91.1076 185.0694,-91.0466 184.6254,-90.9838 184.1912,-90.9193 183.767,-90.8533 183.3526,-90.7858 182.9481,-90.7171 182.5535,-90.6471 182.1688,-90.5762 181.7939,-90.5044 181.429,-90.4318 181.0739,-90.3586 180.7286,-90.2849 180.3932,-90.2108 180.0676,-90.1366 179.7518,-90.0622 179.4458,-89.9879 179.1496,-89.9138 178.8632,-89.84 178.5865,-89.7667 178.3195,-89.6939 178.0623,-89.6218 177.3245,-89.764 174.166,-95.7485 174.4649,-96.4379 174.6695,-96.6096 174.8802,-96.789 175.0969,-96.976 175.3195,-97.1708 175.5478,-97.3736 175.7818,-97.5843 176.0213,-97.803 176.2664,-98.0299 176.5168,-98.2651 176.7724,-98.5085 177.0332,-98.7604 177.2991,-99.0208 177.5699,-99.2897 177.8456,-99.5673 178.1259,-99.8536 178.4109,-100.1487 178.7005,-100.4528 178.9944,-100.7658 179.2926,-101.0878 179.595,-101.419 179.9014,-101.7594 180.2118,-102.109 180.5261,-102.4679 180.844,-102.8363 181.1656,-103.2142 181.4907,-103.6016 181.8191,-103.9986 182.1508,-104.4052 182.4856,-104.8217 182.8234,-105.2479 183.1641,-105.684 183.5076,-106.13 183.8537,-106.586 184.2023,-107.0521 184.5534,-107.5282 184.9067,-108.0146 185.2622,-108.5111 185.6197,-109.0179 185.9791,-109.535 186.3402,-110.0625 186.4133,-110.4288 183.3273,-115.4796 182.9681,-115.5817 182.3339,-115.501 181.7097,-115.4172 181.0957,-115.3304 180.4916,-115.2407 179.8977,-115.1482 179.3138,-115.0531 178.74,-114.9556 178.1763,-114.8557 177.6226,-114.7536 177.0791,-114.6494 176.5457,-114.5433 176.0224,-114.4355 175.5092,-114.3259 175.006,-114.2148 174.513,-114.1024 174.03,-113.9887 173.5572,-113.8739 173.0944,-113.758 172.6416,-113.6414 172.1989,-113.524 171.7662,-113.4061 171.3436,-113.2877 170.931,-113.169 170.5283,-113.0501 170.1356,-112.9312 169.7529,-112.8124 169.3801,-112.6938 169.0172,-112.5755 168.6642,-112.4578 168.3211,-112.3406 167.9878,-112.2243 167.6643,-112.1088 167.3506,-111.9943 167.0466,-111.8809 166.7524,-111.7689 166.4678,-111.6582 166.1929,-111.5491 165.9276,-111.4416 165.6718,-111.336 165.4256,-111.2323 164.6758,-111.2809 160.7921,-116.8223 161.0023,-117.5437 161.1838,-117.7397 161.3704,-117.9441 161.5619,-118.1568 161.7583,-118.378 161.9594,-118.6077 162.1651,-118.8461 162.3754,-119.0931 162.59,-119.349 162.809,-119.6136 163.0321,-119.8872 163.2593,-120.1698 163.4904,-120.4614 163.7254,-120.7622 163.9641,-121.0721 164.2064,-121.3913 164.4521,-121.7199 164.7013,-122.0578 164.9536,-122.4052 165.2091,-122.762 165.4676,-123.1285 165.729,-123.5046 165.9932,-123.8903 166.2599,-124.2859 166.5292,-124.6912 166.8009,-125.1064 167.0748,-125.5314 167.3509,-125.9665 167.629,-126.4115 167.909,-126.8666 168.1907,-127.3318 168.4741,-127.8072 168.7589,-128.2927 169.0452,-128.7885 169.3327,-129.2946 169.6213,-129.811 169.9108,-130.3378 170.2013,-130.875 170.4925,-131.4226 170.7842,-131.9806 171.0764,-132.5492 171.103,-132.9218 167.4083,-137.546 167.0391,-137.6023 166.42,-137.4428 165.8113,-137.2814 165.2129,-137.1183 164.6249,-136.9536 164.0472,-136.7874 163.4798,-136.6199 162.9228,-136.4512 162.3761,-136.2814 161.8396,-136.1107 161.3134,-135.9393 160.7975,-135.7672 160.2918,-135.5945 159.7964,-135.4215 159.3111,-135.2483 158.8361,-135.0749 158.3712,-134.9016 157.9164,-134.7284 157.4718,-134.5555 157.0372,-134.383 156.6127,-134.2111 156.1983,-134.0399 155.7938,-133.8694 155.3993,-133.7 155.0147,-133.5315 154.64,-133.3644 154.2752,-133.1985 153.9202,-133.0341 153.575,-132.8713 153.2396,-132.7102 152.9138,-132.551 152.5977,-132.3938 152.2913,-132.2387 151.9944,-132.0858 151.707,-131.9352 151.4291,-131.7872 151.1607,-131.6417 150.9016,-131.499 150.6518,-131.3591 150.4113,-131.2223 150.1801,-131.0885 149.4301,-131.0427 144.8825,-136.0537 145.0006,-136.7958 145.1561,-137.013 145.3156,-137.2391 145.479,-137.4742 145.6461,-137.7182 145.8168,-137.9713 145.991,-138.2336 146.1687,-138.5051 146.3496,-138.7858 146.5336,-139.0758 146.7207,-139.3752 146.9107,-139.684 147.1034,-140.0023 147.2989,-140.3302 147.4968,-140.6676 147.6972,-141.0146 147.8998,-141.3714 148.1047,-141.7379 148.3115,-142.1141 148.5203,-142.5002 148.7308,-142.8962 148.943,-143.3021 149.1567,-143.7179 149.3718,-144.1437 149.5881,-144.5796 149.8056,-145.0256 150.0241,-145.4816 150.2435,-145.9478 150.4636,-146.4242 150.6844,-146.9108 150.9056,-147.4077 151.1271,-147.9148 151.3489,-148.4322 151.5707,-148.96 151.7925,-149.4981 152.0141,-150.0466 152.2354,-150.6055 152.4562,-151.1748 152.6765,-151.7546 152.896,-152.3449 153.1146,-152.9456 153.0943,-153.3185 148.8492,-157.4432 148.4758,-157.4528 147.8816,-157.217 147.2979,-156.9805 146.7247,-156.7437 146.162,-156.5066 145.6096,-156.2693 145.0678,-156.032 144.5362,-155.7949 144.0151,-155.5579 143.5042,-155.3213 143.0037,-155.0853 142.5134,-154.8499 142.0334,-154.6152 141.5635,-154.3815 141.1038,-154.1488 140.6542,-153.9173 140.2147,-153.687 139.7853,-153.4582 139.3658,-153.2309 138.9563,-153.0054 138.5567,-152.7816 138.1669,-152.5597 137.787,-152.34 137.4169,-152.1224 137.0564,-151.9071 136.7057,-151.6943 136.3645,-151.484 136.0329,-151.2764 135.7109,-151.0716 135.3982,-150.8698 135.095,-150.671 134.8011,-150.4754 134.5165,-150.2831 134.2411,-150.0942 133.9749,-149.9088 133.7177,-149.7271 133.4696,-149.5491 133.2305,-149.3751 133.0002,-149.205 132.7788,-149.0391 132.5661,-148.8774 131.8278,-148.738 126.688,-153.1395 126.7122,-153.8905 126.8392,-154.1255 126.9691,-154.3698 127.1017,-154.6235 127.2369,-154.8866 127.3746,-155.1591 127.5146,-155.4411 127.6568,-155.7327 127.8011,-156.0339 127.9473,-156.3447 128.0954,-156.6652 128.2452,-156.9954 128.3966,-157.3353 128.5493,-157.6851 128.7034,-158.0446 128.8587,-158.4141 129.0151,-158.7934 129.1723,-159.1827 129.3304,-159.5819 129.4891,-159.9911 129.6484,-160.4103 129.808,-160.8396 129.9679,-161.2789 130.1279,-161.7284 130.288,-162.1879 130.4479,-162.6576 130.6075,-163.1375 130.7667,-163.6275 130.9254,-164.1277 131.0834,-164.6381 131.2405,-165.1588 131.3968,-165.6897 131.552,-166.2308 131.7059,-166.7822 131.8585,-167.3439 132.0096,-167.9159 132.1591,-168.4981 132.3068,-169.0906 132.4527,-169.6934 132.5965,-170.3065 132.7381,-170.9299 132.6712,-171.2974 127.9426,-174.8575 127.5709,-174.8202 127.011,-174.5117 126.4615,-174.204 125.9225,-173.8972 125.3939,-173.5915 124.8757,-173.2868 124.3678,-172.9835 123.8703,-172.6816 123.3829,-172.3812 122.9057,-172.0824 122.4387,-171.7855 121.9818,-171.4905 121.535,-171.1976 121.0981,-170.9068 120.6712,-170.6183 120.2542,-170.3322 119.847,-170.0487 119.4496,-169.7679 119.0619,-169.4898 118.6839,-169.2147 118.3155,-168.9426 117.9566,-168.6737 117.6073,-168.408 117.2673,-168.1458 116.9367,-167.887 116.6154,-167.6319 116.3033,-167.3805 116.0003,-167.133 115.7064,-166.8895 115.4216,-166.65 115.1457,-166.4148 114.8786,-166.1839 114.6204,-165.9574 114.3708,-165.7355 114.1299,-165.5182 113.8976,-165.3057 113.6737,-165.0981 113.4583,-164.8954 113.2511,-164.6978 113.0523,-164.5055 112.8615,-164.3184 112.1465,-164.0875 106.4956,-167.8102 106.4254,-168.5582 106.522,-168.8073 106.6203,-169.066 106.72,-169.3343 106.8212,-169.6122 106.9236,-169.8999 107.0272,-170.1972 107.1317,-170.5044 107.2371,-170.8212 107.3433,-171.1479 107.45,-171.4844 107.5572,-171.8308 107.6648,-172.187 107.7725,-172.5532 107.8803,-172.9292 107.9881,-173.3152 108.0957,-173.7111 108.2029,-174.117 108.3097,-174.5329 108.4159,-174.9588 108.5213,-175.3947 108.6259,-175.8406 108.7295,-176.2965 108.8319,-176.7624 108.9331,-177.2384 109.0328,-177.7245 109.131,-178.2205 109.2276,-178.7266 109.3223,-179.2428 109.4151,-179.769 109.5058,-180.3053 109.5943,-180.8516 109.6804,-181.4079 109.764,-181.9742 109.845,-182.5506 109.9232,-183.137 109.9986,-183.7334 110.0709,-184.3397 110.14,-184.9561 110.2058,-185.5824 110.2682,-186.2186 110.1558,-186.5748 105.0182,-189.5142 104.6542,-189.4305 104.1373,-189.0543 103.6308,-188.6802 103.1345,-188.3083 102.6484,-187.9387 102.1725,-187.5715 101.7066,-187.2069 101.2508,-186.845 100.8049,-186.4859 100.3689,-186.1297 99.9428,-185.7766 99.5265,-185.4266 99.1199,-185.08 98.7229,-184.7367 98.3355,-184.397 97.9577,-184.061 97.5892,-183.7286 97.2301,-183.4002 96.8804,-183.0758 96.5398,-182.7554 96.2084,-182.4393 95.8861,-182.1275 95.5728,-181.8202 95.2684,-181.5174 94.9728,-181.2192 94.686,-180.9258 94.4078,-180.6373 94.1383,-180.3538 93.8773,-180.0754 93.6247,-179.8021 93.3804,-179.5342 93.1444,-179.2716 92.9166,-179.0145 92.6968,-178.7631 92.485,-178.5173 92.2811,-178.2774 92.0851,-178.0433 91.8967,-177.8152 91.716,-177.5933 91.5428,-177.3775 91.377,-177.168 90.6966,-176.8494 84.6236,-179.8344 84.4603,-180.5678 84.5249,-180.827 84.59,-181.0959 84.6553,-181.3746 84.7208,-181.6631 84.7864,-181.9613 84.8519,-182.2693 84.9171,-182.587 84.9819,-182.9146 85.0463,-183.252 85.11,-183.5993 85.173,-183.9564 85.235,-184.3233 85.296,-184.7 85.3559,-185.0866 85.4144,-185.4831 85.4715,-185.8894 85.527,-186.3055 85.5809,-186.7315 85.6328,-187.1673 85.6828,-187.613 85.7307,-188.0684 85.7763,-188.5338 85.8195,-189.0089 85.8602,-189.4938 85.8983,-189.9885 85.9336,-190.4929 85.9659,-191.0072 85.9952,-191.5311 86.0213,-192.0648 86.0441,-192.6082 86.0634,-193.1613 86.0791,-193.724 86.0911,-194.2964 86.0992,-194.8784 86.1033,-195.4699 86.1033,-196.071 86.099,-196.6817 86.0904,-197.3018 86.0772,-197.9314 86.0593,-198.5705 85.9032,-198.9098 80.4377,-201.1821 80.087,-201.0535 79.6214,-200.6155 79.1657,-200.1808 78.72,-199.7496 78.284,-199.322 77.8578,-198.898 77.4414,-198.4779 77.0345,-198.0617 76.6371,-197.6496 76.2493,-197.2416 75.8708,-196.8378 75.5016,-196.4385 75.1416,-196.0436 74.7908,-195.6533 74.4491,-195.2677 74.1163,-194.8869 73.7924,-194.5111 73.4773,-194.1402 73.171,-193.7745 72.8733,-193.414 72.5841,-193.0588 72.3034,-192.7091 72.031,-192.3649 71.767,-192.0263 71.5111,-191.6935 71.2633,-191.3665 71.0235,-191.0454 70.7917,-190.7303 70.5676,-190.4214 70.3512,-190.1186 70.1425,-189.8221 69.9412,-189.5321 69.7474,-189.2485 69.5609,-188.9715 69.3816,-188.7011 69.2094,-188.4375 69.0442,-188.1807 68.8859,-187.9308 68.7345,-187.688 68.5897,-187.4522 68.4515,-187.2235 67.8163,-186.8221 61.4171,-189.0225 61.1631,-189.7296 61.1948,-189.9949 61.2256,-190.2699 61.2555,-190.5545 61.2844,-190.8489 61.312,-191.153 61.3384,-191.4668 61.3633,-191.7902 61.3866,-192.1234 61.4081,-192.4662 61.4278,-192.8187 61.4455,-193.1808 61.4611,-193.5526 61.4744,-193.934 61.4853,-194.3251 61.4937,-194.7257 61.4994,-195.136 61.5024,-195.5558 61.5024,-195.9852 61.4993,-196.4241 61.493,-196.8725 61.4834,-197.3304 61.4704,-197.7977 61.4537,-198.2745 61.4333,-198.7607 61.4091,-199.2563 61.3809,-199.7612 61.3485,-200.2754 61.3119,-200.7989 61.2709,-201.3317 61.2254,-201.8736 61.1752,-202.4248 61.1203,-202.985 61.0604,-203.5544 60.9955,-204.1328 60.9255,-204.7202 60.8501,-205.3166 60.7694,-205.9219 60.683,-206.536 60.591,-207.159 60.4932,-207.7908 60.2958,-208.1078 54.5886,-209.6772 54.2569,-209.5057 53.8498,-209.0128 53.4522,-208.5244 53.064,-208.0407 52.6851,-207.5618 52.3154,-207.0878 51.9548,-206.6188 51.6033,-206.1549 51.2608,-205.6962 50.9271,-205.2428 50.6022,-204.7948 50.286,-204.3523 49.9783,-203.9155 49.6792,-203.4843 49.3885,-203.0589 49.106,-202.6394 48.8318,-202.2259 48.5657,-201.8185 48.3076,-201.4173 48.0574,-201.0223 47.8151,-200.6337 47.5804,-200.2516 47.3533,-199.8759 47.1338,-199.5069 46.9217,-199.1447 46.7168,-198.7892 46.5192,-198.4405 46.3286,-198.0989 46.145,-197.7643 45.9683,-197.4368 45.7984,-197.1165 45.6351,-196.8035 45.4783,-196.4979 45.328,-196.1997 45.184,-195.909 45.0462,-195.6259 44.9145,-195.3504 44.7888,-195.0826 44.6689,-194.8227 44.5548,-194.5706 44.4464,-194.3265 43.8665,-193.8486 37.242,-195.2296 36.9014,-195.8993 36.8995,-196.1665 36.8957,-196.4431 36.8897,-196.7293 36.8814,-197.025 36.8707,-197.3301 36.8576,-197.6447 36.8417,-197.9688 36.8231,-198.3022 36.8015,-198.645 36.7769,-198.9972 36.749,-199.3587 36.7179,-199.7295 36.6833,-200.1096 36.6451,-200.4989 36.6032,-200.8975 36.5575,-201.3052 36.5078,-201.7221 36.4539,-202.1481 36.3959,-202.5831 36.3335,-203.0272 36.2666,-203.4803 36.195,-203.9423 36.1187,-204.4133 36.0376,-204.8931 35.9514,-205.3817 35.8601,-205.8791 35.7636,-206.3852 35.6616,-206.9 35.5542,-207.4234 35.4411,-207.9554 35.3223,-208.4959 35.1975,-209.0448 35.0668,-209.6022 34.9299,-210.1679 34.7868,-210.7419 34.6373,-211.3241 34.4813,-211.9145 34.3187,-212.513 34.1494,-213.1196 33.9731,-213.7341 33.7375,-214.0239 27.8787,-214.8656 27.571,-214.6539 27.2289,-214.1138 26.8957,-213.5795 26.5711,-213.0509 26.2552,-212.5283 25.9479,-212.0117 25.6489,-211.5013 25.3584,-210.997 25.076,-210.4989 24.8018,-210.0073 24.5356,-209.5221 24.2773,-209.0435 24.0269,-208.5715 23.7841,-208.1062 23.549,-207.6477 23.3214,-207.1962 23.1011,-206.7516 22.8882,-206.314 22.6824,-205.8836 22.4837,-205.4604 22.2919,-205.0445 22.107,-204.6359 21.9289,-204.2348 21.7573,-203.8412 21.5922,-203.4552 21.4336,-203.0768 21.2812,-202.7062 21.1349,-202.3433 20.9947,-201.9884 20.8604,-201.6413 20.732,-201.3023 20.6092,-200.9713 20.492,-200.6484 20.3802,-200.3337 20.2738,-200.0272 20.1726,-199.7291 20.0764,-199.4393 19.9853,-199.1579 19.8989,-198.885 19.8173,-198.6206 19.7403,-198.3647 19.225,-197.818 12.4796,-198.3578 12.0577,-198.9795 12.0224,-199.2444 11.9839,-199.5184 11.9421,-199.8015 11.8968,-200.0939 11.848,-200.3953 11.7955,-200.7057 11.7391,-201.0252 11.6788,-201.3537 11.6145,-201.6911 11.5459,-202.0374 11.473,-202.3926 11.3956,-202.7565 11.3136,-203.1293 11.227,-203.5108 11.1355,-203.9009 11.039,-204.2997 10.9374,-204.7071 10.8306,-205.123 10.7185,-205.5473 10.6009,-205.9801 10.4777,-206.4212 10.3489,-206.8706 10.2142,-207.3283 10.0735,-207.7941 9.9268,-208.2681 9.7739,-208.7501 9.6146,-209.2401 9.449,-209.7381 9.2768,-210.2439 9.0979,-210.7575 8.9123,-211.2789 8.7197,-211.8079 8.5202,-212.3445 8.3135,-212.8886 8.0996,-213.4401 7.8783,-213.999 7.6495,-214.5652 7.4132,-215.1386 7.1691,-215.7191 6.9173,-216.3067 6.6472,-216.5647 0.729,-216.6654 0.4503,-216.4168 0.1786,-215.8381 -0.085,-215.2662 -0.3408,-214.7012 -0.5887,-214.1431 -0.8289,-213.5921 -1.0614,-213.0482 -1.2865,-212.5114 -1.5042,-211.9819 -1.7147,-211.4598 -1.918,-210.9451 -2.1142,-210.4379 -2.3035,-209.9382 -2.486,-209.4462 -2.6619,-208.9619 -2.8311,-208.4853 -2.9939,-208.0166 -3.1503,-207.5558 -3.3005,-207.103 -3.4446,-206.6582 -3.5827,-206.2216 -3.715,-205.793 -3.8415,-205.3728 -3.9624,-204.9608 -4.0777,-204.5571 -4.1877,-204.1618 -4.2925,-203.775 -4.3921,-203.3967 -4.4867,-203.027 -4.5764,-202.6658 -4.6614,-202.3133 -4.7417,-201.9696 -4.8175,-201.6345 -4.889,-201.3083 -4.9561,-200.9909 -5.0192,-200.6824 -5.0782,-200.3829 -5.1334,-200.0923 -5.1849,-199.8107 -5.2327,-199.5382 -5.277,-199.2747 -5.7198,-198.6677 -12.4796,-198.3578 -12.9761,-198.9218 -13.0443,-199.1801 -13.1169,-199.4471 -13.1939,-199.7228 -13.2754,-200.0071 -13.3616,-200.3 -13.4526,-200.6015 -13.5486,-200.9114 -13.6496,-201.2297 -13.7557,-201.5564 -13.8671,-201.8913 -13.984,-202.2346 -14.1064,-202.586 -14.2344,-202.9455 -14.3682,-203.3132 -14.5079,-203.6888 -14.6536,-204.0723 -14.8054,-204.4637 -14.9635,-204.8629 -15.1279,-205.2699 -15.2988,-205.6845 -15.4763,-206.1067 -15.6605,-206.5364 -15.8515,-206.9736 -16.0494,-207.4181 -16.2544,-207.87 -16.4665,-208.3291 -16.6859,-208.7953 -16.9127,-209.2685 -17.1469,-209.7488 -17.3887,-210.2359 -17.6383,-210.7299 -17.8956,-211.2306 -18.1608,-211.7379 -18.4341,-212.2518 -18.7154,-212.7722 -19.005,-213.299 -19.303,-213.832 -19.6093,-214.3713 -19.9242,-214.9166 -20.2477,-215.468 -20.548,-215.6901 -26.4321,-215.0483 -26.6774,-214.7667 -26.8745,-214.1586 -27.0644,-213.5582 -27.2473,-212.9655 -27.4233,-212.3808 -27.5925,-211.804 -27.7551,-211.2352 -27.9111,-210.6745 -28.0608,-210.1219 -28.2041,-209.5775 -28.3413,-209.0413 -28.4724,-208.5135 -28.5976,-207.9941 -28.717,-207.483 -28.8307,-206.9805 -28.9389,-206.4865 -29.0417,-206.0011 -29.1391,-205.5243 -29.2314,-205.0563 -29.3186,-204.5969 -29.4009,-204.1464 -29.4784,-203.7047 -29.5512,-203.2719 -29.6195,-202.848 -29.6834,-202.433 -29.743,-202.0271 -29.7984,-201.6302 -29.8498,-201.2424 -29.8973,-200.8637 -29.9411,-200.4942 -29.9812,-200.1338 -30.0178,-199.7827 -30.051,-199.4408 -30.081,-199.1082 -30.1079,-198.7849 -30.1318,-198.4709 -30.1528,-198.1663 -30.1712,-197.8711 -30.1869,-197.5853 -30.2002,-197.3089 -30.2112,-197.042 -30.5744,-196.3842 -37.242,-195.2296 -37.8053,-195.7269 -37.9054,-195.9746 -38.0108,-196.2304 -38.1217,-196.4943 -38.2383,-196.7662 -38.3605,-197.0459 -38.4886,-197.3336 -38.6226,-197.629 -38.7627,-197.9322 -38.9089,-198.243 -39.0615,-198.5614 -39.2204,-198.8872 -39.3859,-199.2205 -39.558,-199.5612 -39.7368,-199.9092 -39.9225,-200.2643 -40.1151,-200.6266 -40.3148,-200.9958 -40.5216,-201.3721 -40.7358,-201.7552 -40.9573,-202.1452 -41.1863,-202.5418 -41.4229,-202.945 -41.6672,-203.3548 -41.9193,-203.7711 -42.1792,-204.1937 -42.4472,-204.6225 -42.7233,-205.0575 -43.0076,-205.4987 -43.3002,-205.9458 -43.6012,-206.3988 -43.9106,-206.8575 -44.2287,-207.322 -44.5554,-207.7921 -44.8909,-208.2677 -45.2353,-208.7488 -45.5886,-209.2351 -45.951,-209.7266 -46.3225,-210.2232 -46.7033,-210.7248 -47.0933,-211.2313 -47.4191,-211.414 -53.1764,-210.0398 -53.3845,-209.7297 -53.5037,-209.1016 -53.6169,-208.4821 -53.7241,-207.8712 -53.8254,-207.2691 -53.921,-206.6756 -54.011,-206.0909 -54.0956,-205.515 -54.1747,-204.948 -54.2487,-204.39 -54.3176,-203.8409 -54.3816,-203.3008 -54.4407,-202.7697 -54.4951,-202.2478 -54.5449,-201.735 -54.5903,-201.2313 -54.6314,-200.7368 -54.6684,-200.2516 -54.7012,-199.7757 -54.7302,-199.309 -54.7554,-198.8517 -54.7769,-198.4038 -54.7949,-197.9653 -54.8095,-197.5361 -54.8209,-197.1165 -54.8292,-196.7063 -54.8344,-196.3056 -54.8368,-195.9144 -54.8365,-195.5327 -54.8336,-195.1606 -54.8282,-194.7981 -54.8205,-194.4451 -54.8106,-194.1017 -54.7987,-193.768 -54.7848,-193.4439 -54.7692,-193.1294 -54.7519,-192.8246 -54.7331,-192.5294 -54.7129,-192.2438 -54.6914,-191.968 -54.6688,-191.7018 -54.9468,-191.0037 -61.4171,-189.0225 -62.0383,-189.4453 -62.1686,-189.6785 -62.3053,-189.9191 -62.4484,-190.167 -62.5981,-190.4221 -62.7544,-190.6843 -62.9175,-190.9537 -63.0875,-191.23 -63.2645,-191.5132 -63.4486,-191.8032 -63.6398,-192.0999 -63.8384,-192.4033 -64.0443,-192.7133 -64.2577,-193.0297 -64.4787,-193.3525 -64.7075,-193.6815 -64.944,-194.0168 -65.1884,-194.3582 -65.4407,-194.7055 -65.7012,-195.0588 -65.9698,-195.4179 -66.2467,-195.7827 -66.532,-196.1531 -66.8257,-196.529 -67.128,-196.9104 -67.4389,-197.2971 -67.7585,-197.689 -68.087,-198.086 -68.4243,-198.488 -68.7706,-198.8949 -69.126,-199.3066 -69.4905,-199.723 -69.8643,-200.1439 -70.2473,-200.5694 -70.6398,-200.9992 -71.0418,-201.4332 -71.4533,-201.8714 -71.8744,-202.3136 -72.3052,-202.7598 -72.7458,-203.2097 -73.1963,-203.6633 -73.5424,-203.8037 -79.082,-201.7188 -79.2496,-201.385 -79.2892,-200.747 -79.3239,-200.1182 -79.3536,-199.4987 -79.3787,-198.8886 -79.3991,-198.2878 -79.4152,-197.6964 -79.4269,-197.1145 -79.4344,-196.5421 -79.4378,-195.9791 -79.4373,-195.4257 -79.4331,-194.8819 -79.4252,-194.3476 -79.4137,-193.8229 -79.3989,-193.3079 -79.3808,-192.8025 -79.3596,-192.3068 -79.3355,-191.8208 -79.3084,-191.3445 -79.2787,-190.8779 -79.2463,-190.4211 -79.2116,-189.974 -79.1745,-189.5366 -79.1352,-189.1091 -79.0939,-188.6913 -79.0506,-188.2833 -79.0056,-187.8851 -78.959,-187.4966 -78.9108,-187.118 -78.8613,-186.7492 -78.8105,-186.3902 -78.7587,-186.041 -78.7058,-185.7016 -78.6522,-185.372 -78.5978,-185.0522 -78.5429,-184.7421 -78.4875,-184.4419 -78.4318,-184.1514 -78.376,-183.8706 -78.3201,-183.5996 -78.2644,-183.3383 -78.4526,-182.6109 -84.6236,-179.8344 -85.2928,-180.176 -85.4514,-180.391 -85.6171,-180.6126 -85.7902,-180.8406 -85.9707,-181.0749 -86.1587,-181.3155 -86.3543,-181.5623 -86.5575,-181.8151 -86.7686,-182.0739 -86.9876,-182.3386 -87.2145,-182.609 -87.4495,-182.8851 -87.6927,-183.1668 -87.9441,-183.454 -88.2038,-183.7465 -88.472,-184.0443 -88.7486,-184.3473 -89.0339,-184.6553 -89.3278,-184.9683 -89.6305,-185.2861 -89.942,-185.6087 -90.2624,-185.936 -90.5919,-186.2677 -90.9304,-186.6039 -91.2781,-186.9443 -91.635,-187.289 -92.0012,-187.6377 -92.3768,-187.9904 -92.7619,-188.347 -93.1565,-188.7073 -93.5606,-189.0712 -93.9745,-189.4386 -94.3981,-189.8094 -94.8314,-190.1835 -95.2747,-190.5607 -95.7279,-190.941 -96.191,-191.3241 -96.6643,-191.7101 -97.1476,-192.0987 -97.6411,-192.4899 -98.1449,-192.8834 -98.5059,-192.9794 -103.7405,-190.2166 -103.865,-189.8644 -103.8243,-189.2265 -103.7798,-188.5983 -103.7317,-187.98 -103.6801,-187.3715 -103.6251,-186.7729 -103.5669,-186.1842 -103.5056,-185.6054 -103.4413,-185.0365 -103.3741,-184.4776 -103.3043,-183.9286 -103.2319,-183.3896 -103.1571,-182.8605 -103.08,-182.3414 -103.0007,-181.8323 -102.9195,-181.3332 -102.8363,-180.844 -102.7514,-180.3649 -102.6649,-179.8957 -102.5769,-179.4365 -102.4876,-178.9873 -102.397,-178.5481 -102.3054,-178.1189 -102.2128,-177.6996 -102.1195,-177.2903 -102.0255,-176.8909 -101.9309,-176.5015 -101.8359,-176.122 -101.7407,-175.7524 -101.6453,-175.3927 -101.55,-175.0429 -101.4548,-174.7029 -101.3598,-174.3728 -101.2652,-174.0525 -101.1712,-173.7421 -101.0779,-173.4413 -100.9853,-173.1504 -100.8936,-172.8692 -100.8031,-172.5976 -100.7137,-172.3357 -100.6256,-172.0835 -100.7212,-171.3383 -106.4956,-167.8102 -107.2023,-168.0652 -107.3866,-168.2587 -107.5788,-168.4577 -107.7791,-168.6622 -107.9875,-168.8721 -108.2042,-169.0872 -108.4291,-169.3075 -108.6625,-169.5329 -108.9043,-169.7632 -109.1547,-169.9983 -109.4138,-170.2382 -109.6815,-170.4827 -109.9581,-170.7317 -110.2435,-170.9851 -110.5378,-171.2427 -110.8412,-171.5046 -111.1536,-171.7705 -111.4753,-172.0403 -111.8061,-172.314 -112.1462,-172.5914 -112.4957,-172.8724 -112.8547,-173.1569 -113.2231,-173.4447 -113.6011,-173.7358 -113.9887,-174.03 -114.386,-174.3272 -114.793,-174.6273 -115.2099,-174.9302 -115.6366,-175.2357 -116.0732,-175.5437 -116.5198,-175.854 -116.9764,-176.1667 -117.4431,-176.4815 -117.92,-176.7983 -118.407,-177.117 -118.9043,-177.4375 -119.4118,-177.7595 -119.9297,-178.0831 -120.4579,-178.4081 -120.9966,-178.7343 -121.5457,-179.0617 -121.9158,-179.1116 -126.7629,-175.7145 -126.8423,-175.3496 -126.722,-174.7217 -126.5991,-174.1041 -126.4739,-173.4966 -126.3464,-172.8994 -126.2168,-172.3125 -126.0853,-171.7357 -125.9519,-171.1691 -125.8168,-170.6128 -125.6802,-170.0667 -125.5421,-169.5308 -125.4027,-169.0051 -125.2622,-168.4896 -125.1206,-167.9842 -124.9782,-167.4891 -124.835,-167.0041 -124.6912,-166.5292 -124.5469,-166.0645 -124.4023,-165.6099 -124.2574,-165.1653 -124.1125,-164.7309 -123.9676,-164.3065 -123.8229,-163.8921 -123.6785,-163.4877 -123.5346,-163.0933 -123.3913,-162.7089 -123.2486,-162.3344 -123.1069,-161.9698 -122.9661,-161.615 -122.8264,-161.2701 -122.6879,-160.935 -122.5508,-160.6097 -122.4153,-160.2941 -122.2813,-159.9882 -122.1491,-159.6919 -122.0188,-159.4053 -121.8905,-159.1282 -121.7643,-158.8607 -121.6404,-158.6027 -121.5189,-158.3541 -121.3999,-158.1149 -121.4014,-157.3635 -126.688,-153.1395 -127.4212,-153.3039 -127.6282,-153.4728 -127.8438,-153.6462 -128.0682,-153.824 -128.3013,-154.0061 -128.5432,-154.1924 -128.794,-154.3827 -129.0538,-154.5771 -129.3226,-154.7752 -129.6005,-154.9771 -129.8875,-155.1826 -130.1838,-155.3916 -130.4894,-155.604 -130.8043,-155.8196 -131.1286,-156.0384 -131.4624,-156.2601 -131.8057,-156.4848 -132.1586,-156.7122 -132.5211,-156.9423 -132.8934,-157.1749 -133.2753,-157.4098 -133.6671,-157.6471 -134.0687,-157.8865 -134.4802,-158.1279 -134.9016,-158.3712 -135.333,-158.6163 -135.7744,-158.863 -136.226,-159.1112 -136.6876,-159.3608 -137.1594,-159.6116 -137.6413,-159.8636 -138.1336,-160.1165 -138.636,-160.3704 -139.1488,-160.6249 -139.672,-160.88 -140.2055,-161.1357 -140.7494,-161.3916 -141.3037,-161.6477 -141.8685,-161.9039 -142.4438,-162.1601 -143.0297,-162.416 -143.4031,-162.4192 -147.7862,-158.4414 -147.8192,-158.0693 -147.6212,-157.4615 -147.4219,-156.8641 -147.2215,-156.2772 -147.0202,-155.7007 -146.8181,-155.1346 -146.6153,-154.5788 -146.4119,-154.0335 -146.2082,-153.4985 -146.0041,-152.9738 -145.8,-152.4594 -145.5958,-151.9553 -145.3918,-151.4615 -145.188,-150.9779 -144.9846,-150.5045 -144.7818,-150.0412 -144.5796,-149.5881 -144.3782,-149.1452 -144.1777,-148.7122 -143.9783,-148.2894 -143.7801,-147.8765 -143.5831,-147.4736 -143.3876,-147.0806 -143.1937,-146.6975 -143.0015,-146.3243 -142.8111,-145.9609 -142.6227,-145.6072 -142.4363,-145.2632 -142.2522,-144.9289 -142.0704,-144.6043 -141.891,-144.2891 -141.7142,-143.9836 -141.5402,-143.6874 -141.3689,-143.4007 -141.2006,-143.1234 -141.0354,-142.8553 -140.8734,-142.5965 -140.7147,-142.3469 -140.5594,-142.1064 -140.4077,-141.875 -140.2597,-141.6526 -140.1669,-140.907 -144.8825,-136.0537 -145.6305,-136.125 -145.8571,-136.2666 -146.0927,-136.4115 -146.3376,-136.5598 -146.5917,-136.7113 -146.855,-136.8658 -147.1277,-137.0232 -147.4098,-137.1834 -147.7013,-137.3464 -148.0023,-137.5118 -148.3129,-137.6797 -148.633,-137.85 -148.9628,-138.0224 -149.3022,-138.1968 -149.6514,-138.3732 -150.0104,-138.5514 -150.3791,-138.7312 -150.7577,-138.9126 -151.1463,-139.0954 -151.5447,-139.2795 -151.9531,-139.4648 -152.3715,-139.6511 -152.7999,-139.8382 -153.2384,-140.0262 -153.687,-140.2147 -154.1457,-140.4038 -154.6146,-140.5932 -155.0937,-140.7829 -155.583,-140.9727 -156.0825,-141.1624 -156.5922,-141.352 -157.1123,-141.5413 -157.6426,-141.7301 -158.1832,-141.9184 -158.7342,-142.1059 -159.2956,-142.2926 -159.8673,-142.4784 -160.4493,-142.663 -161.0418,-142.8464 -161.6447,-143.0284 -162.2579,-143.2089 -162.6289,-143.1653 -166.4789,-138.6695 -166.465,-138.2963 -166.1923,-137.718 -165.9197,-137.1504 -165.6473,-136.5932 -165.3754,-136.0464 -165.1039,-135.5101 -164.833,-134.9842 -164.5629,-134.4686 -164.2937,-133.9633 -164.0256,-133.4684 -163.7585,-132.9836 -163.4928,-132.5091 -163.2285,-132.0447 -162.9657,-131.5905 -162.7046,-131.1463 -162.4453,-130.7121 -162.1879,-130.288 -161.9326,-129.8737 -161.6794,-129.4693 -161.4286,-129.0748 -161.1802,-128.69 -160.9343,-128.315 -160.6911,-127.9496 -160.4507,-127.5939 -160.2132,-127.2477 -159.9788,-126.9109 -159.7475,-126.5837 -159.5195,-126.2658 -159.2949,-125.9572 -159.0738,-125.6579 -158.8564,-125.3677 -158.6427,-125.0867 -158.4329,-124.8147 -158.2271,-124.5517 -158.0253,-124.2977 -157.8278,-124.0524 -157.6347,-123.816 -157.4459,-123.5882 -157.2617,-123.3691 -157.0822,-123.1586 -156.9075,-122.9565 -156.722,-122.2284 -160.7921,-116.8223 -161.5431,-116.7993 -161.7857,-116.9113 -162.0376,-117.0256 -162.2991,-117.142 -162.5702,-117.2605 -162.8508,-117.3807 -163.1411,-117.5027 -163.441,-117.6264 -163.7507,-117.7515 -164.0701,-117.8779 -164.3992,-118.0056 -164.7382,-118.1343 -165.0869,-118.264 -165.4456,-118.3946 -165.8141,-118.5258 -166.1926,-118.6576 -166.581,-118.7898 -166.9793,-118.9223 -167.3877,-119.055 -167.8061,-119.1877 -168.2345,-119.3203 -168.6729,-119.4527 -169.1214,-119.5847 -169.58,-119.7161 -170.0487,-119.847 -170.5275,-119.9771 -171.0165,-120.1063 -171.5155,-120.2344 -172.0247,-120.3613 -172.5441,-120.487 -173.0736,-120.6112 -173.6132,-120.7338 -174.163,-120.8546 -174.723,-120.9737 -175.2932,-121.0907 -175.8735,-121.2056 -176.4639,-121.3182 -177.0646,-121.4285 -177.6753,-121.5362 -178.2963,-121.6412 -178.9273,-121.7434 -179.2899,-121.6536 -182.546,-116.7107 -182.4855,-116.3422 -182.1425,-115.8027 -181.8009,-115.2736 -181.4608,-114.755 -181.1225,-114.2466 -180.7859,-113.7485 -180.4513,-113.2607 -180.1187,-112.7831 -179.7883,-112.3155 -179.4602,-111.8581 -179.1345,-111.4106 -178.8114,-110.9731 -178.491,-110.5456 -178.1733,-110.1278 -177.8586,-109.7199 -177.5469,-109.3216 -177.2384,-108.9331 -176.9332,-108.5541 -176.6313,-108.1846 -176.333,-107.8246 -176.0383,-107.474 -175.7474,-107.1328 -175.4603,-106.8008 -175.1772,-106.4779 -174.8982,-106.1642 -174.6234,-105.8596 -174.353,-105.5639 -174.0869,-105.277 -173.8254,-104.999 -173.5686,-104.7298 -173.3165,-104.4692 -173.0693,-104.2172 -172.827,-103.9736 -172.5899,-103.7385 -172.3579,-103.5117 -172.1312,-103.2932 -171.9099,-103.0828 -171.6941,-102.8805 -171.4839,-102.6862 -171.2794,-102.4998 -171.0808,-102.3212 -170.8055,-101.6221 -174.166,-95.7485 -174.9081,-95.6315 -175.1628,-95.7123 -175.4271,-95.7941 -175.7012,-95.8769 -175.9849,-95.9604 -176.2784,-96.0445 -176.5817,-96.1292 -176.8948,-96.2143 -177.2176,-96.2996 -177.5503,-96.385 -177.8929,-96.4704 -178.2453,-96.5556 -178.6076,-96.6406 -178.9798,-96.7251 -179.3618,-96.8091 -179.7538,-96.8925 -180.1557,-96.975 -180.5676,-97.0565 -180.9893,-97.1369 -181.421,-97.2162 -181.8627,-97.294 -182.3143,-97.3704 -182.7758,-97.4452 -183.2473,-97.5181 -183.7286,-97.5892 -184.22,-97.6583 -184.7212,-97.7251 -185.2324,-97.7897 -185.7535,-97.8518 -186.2845,-97.9114 -186.8254,-97.9682 -187.3762,-98.0222 -187.9368,-98.0733 -188.5073,-98.1212 -189.0876,-98.1658 -189.6777,-98.2071 -190.2777,-98.2448 -190.8874,-98.2789 -191.5068,-98.3092 -192.136,-98.3355 -192.7749,-98.3578 -193.1233,-98.2233 -195.7343,-92.9113 -195.628,-92.5533 -195.2201,-92.061 -194.8149,-91.579 -194.4126,-91.107 -194.0132,-90.6451 -193.6168,-90.1931 -193.2237,-89.7511 -192.8339,-89.3189 -192.4475,-88.8964 -192.0646,-88.4837 -191.6855,-88.0806 -191.3101,-87.6871 -190.9386,-87.303 -190.5711,-86.9284 -190.2077,-86.5631 -189.8486,-86.2071 -189.4938,-85.8602 -189.1435,-85.5225 -188.7977,-85.1938 -188.4566,-84.874 -188.1203,-84.5631 -187.7889,-84.261 -187.4625,-83.9676 -187.1411,-83.6828 -186.825,-83.4065 -186.5142,-83.1387 -186.2088,-82.8792 -185.9089,-82.628 -185.6146,-82.385 -185.3261,-82.15 -185.0433,-81.9231 -184.7664,-81.704 -184.4956,-81.4928 -184.2308,-81.2892 -183.9723,-81.0933 -183.72,-80.9049 -183.4741,-80.7239 -183.2346,-80.5503 -183.0017,-80.3838 -182.7755,-80.2245 -182.556,-80.0722 -182.1953,-79.4131 -184.7931,-73.1648 -185.5147,-72.9557 -185.7775,-73.0039 -186.05,-73.0519 -186.3323,-73.0997 -186.6242,-73.1469 -186.926,-73.1936 -187.2375,-73.2396 -187.5587,-73.2848 -187.8898,-73.3289 -188.2305,-73.372 -188.5811,-73.4138 -188.9414,-73.4542 -189.3115,-73.4931 -189.6913,-73.5303 -190.0809,-73.5658 -190.4803,-73.5993 -190.8893,-73.6308 -191.3082,-73.6601 -191.7367,-73.687 -192.1749,-73.7115 -192.6228,-73.7334 -193.0804,-73.7526 -193.5477,-73.7689 -194.0246,-73.7822 -194.5111,-73.7924 -195.0072,-73.7993 -195.5129,-73.8028 -196.0281,-73.8028 -196.5529,-73.7992 -197.0872,-73.7917 -197.6309,-73.7803 -198.1841,-73.7648 -198.7467,-73.7452 -199.3187,-73.7212 -199.9,-73.6928 -200.4907,-73.6597 -201.0906,-73.622 -201.6998,-73.5794 -202.3182,-73.5318 -202.9457,-73.4791 -203.5823,-73.4212 -203.9112,-73.244 -205.8358,-67.6467 -205.6855,-67.3048 -205.2191,-66.8675 -204.7566,-66.4401 -204.2983,-66.0222 -203.8441,-65.614 -203.3943,-65.2153 -202.9489,-64.826 -202.5079,-64.4461 -202.0716,-64.0754 -201.6401,-63.7139 -201.2134,-63.3615 -200.7916,-63.0181 -200.3749,-62.6837 -199.9634,-62.3581 -199.5571,-62.0412 -199.1562,-61.733 -198.7607,-61.4333 -198.3708,-61.1422 -197.9866,-60.8594 -197.6081,-60.5849 -197.2355,-60.3186 -196.8688,-60.0604 -196.5082,-59.8102 -196.1537,-59.5679 -195.8055,-59.3335 -195.4635,-59.1067 -195.128,-58.8876 -194.799,-58.6759 -194.4766,-58.4717 -194.1608,-58.2748 -193.8519,-58.085 -193.5497,-57.9024 -193.2545,-57.7268 -192.9664,-57.558 -192.6853,-57.396 -192.4114,-57.2407 -192.1447,-57.092 -191.8854,-56.9497 -191.6335,-56.8138 -191.389,-56.6841 -191.1522,-56.5605 -190.7117,-55.9518 -192.5059,-49.4271 -193.1957,-49.1292 -193.4624,-49.1441 -193.7388,-49.1576 -194.0248,-49.1696 -194.3204,-49.1799 -194.6256,-49.1885 -194.9404,-49.195 -195.2648,-49.1996 -195.5987,-49.2019 -195.9422,-49.2019 -196.2953,-49.1994 -196.6578,-49.1943 -197.0298,-49.1866 -197.4114,-49.1759 -197.8023,-49.1622 -198.2027,-49.1454 -198.6125,-49.1254 -199.0317,-49.102 -199.4602,-49.075 -199.898,-49.0444 -200.3452,-49.01 -200.8016,-48.9716 -201.2672,-48.9292 -201.742,-48.8827 -202.2259,-48.8318 -202.719,-48.7765 -203.2211,-48.7166 -203.7323,-48.652 -204.2525,-48.5826 -204.7816,-48.5083 -205.3196,-48.4288 -205.8665,-48.3441 -206.4223,-48.2541 -206.9867,-48.1586 -207.5599,-48.0576 -208.1418,-47.9508 -208.7322,-47.8381 -209.3313,-47.7195 -209.9388,-47.5948 -210.5548,-47.4639 -211.1791,-47.3266 -211.4832,-47.1096 -212.6911,-41.3152 -212.4991,-40.9948 -211.9816,-40.6195 -211.4692,-40.2533 -210.9621,-39.8963 -210.4604,-39.5482 -209.9641,-39.209 -209.4734,-38.8786 -208.9883,-38.5569 -208.509,-38.2439 -208.0356,-37.9393 -207.5681,-37.6432 -207.1066,-37.3554 -206.6513,-37.0758 -206.2021,-36.8043 -205.7593,-36.5408 -205.323,-36.2853 -204.8931,-36.0376 -204.4697,-35.7976 -204.0531,-35.5652 -203.6432,-35.3403 -203.2401,-35.1228 -202.844,-34.9126 -202.4549,-34.7096 -202.0728,-34.5136 -201.6979,-34.3247 -201.3303,-34.1426 -200.9699,-33.9672 -200.617,-33.7984 -200.2715,-33.6362 -199.9336,-33.4804 -199.6033,-33.3309 -199.2806,-33.1876 -198.9657,-33.0504 -198.6587,-32.9191 -198.3595,-32.7936 -198.0683,-32.6738 -197.7851,-32.5597 -197.51,-32.4511 -197.243,-32.3478 -196.9843,-32.2497 -196.7338,-32.1568 -196.2205,-31.6081 -197.1828,-24.91 -197.8298,-24.528 -198.0963,-24.5093 -198.3722,-24.4881 -198.6574,-24.4641 -198.952,-24.4373 -199.2559,-24.4075 -199.569,-24.3746 -199.8914,-24.3384 -200.223,-24.2989 -200.5638,-24.2558 -200.9137,-24.2091 -201.2728,-24.1587 -201.6409,-24.1043 -202.0181,-24.0459 -202.4043,-23.9834 -202.7994,-23.9165 -203.2034,-23.8453 -203.6164,-23.7695 -204.0381,-23.689 -204.4687,-23.6038 -204.908,-23.5136 -205.356,-23.4184 -205.8126,-23.318 -206.2778,-23.2123 -206.7516,-23.1011 -207.2338,-22.9845 -207.7245,-22.8621 -208.2235,-22.734 -208.7309,-22.5999 -209.2465,-22.4598 -209.7704,-22.3136 -210.3024,-22.161 -210.8424,-22.0021 -211.3905,-21.8366 -211.9465,-21.6645 -212.5103,-21.4856 -213.082,-21.2998 -213.6615,-21.1071 -214.2486,-20.9072 -214.8433,-20.7001 -215.4455,-20.4856 -215.72,-20.2323 -216.1921,-14.3321 -215.9615,-14.0384 -215.401,-13.7309 -214.8468,-13.4318 -214.299,-13.1411 -213.7575,-12.8587 -213.2227,-12.5843 -212.6944,-12.3181 -212.1729,-12.0597 -211.6581,-11.8092 -211.1502,-11.5664 -210.6493,-11.3312 -210.1554,-11.1035 -209.6686,-10.8831 -209.189,-10.6701 -208.7167,-10.4642 -208.2517,-10.2654 -207.7941,-10.0735 -207.3441,-9.8885 -206.9016,-9.7101 -206.4667,-9.5384 -206.0396,-9.3731 -205.6202,-9.2142 -205.2087,-9.0616 -204.8051,-8.9151 -204.4095,-8.7746 -204.0219,-8.64 -203.6424,-8.5111 -203.2711,-8.388 -202.9081,-8.2703 -202.5533,-8.1581 -202.2068,-8.0512 -201.8688,-7.9494 -201.5391,-7.8527 -201.2181,-7.7609 -200.9055,-7.674 -200.6016,-7.5917 -200.3063,-7.5139 -200.0198,-7.4406 -199.742,-7.3716 -199.473,-7.3067 -199.2128,-7.246 -198.6348,-6.7659 -198.75,0 -199.344,0.4601 -199.6061,0.512 -199.8771,0.5676 -200.1571,0.6271 -200.446,0.6907 -200.7438,0.7583 -201.0503,0.8302 -201.3656,0.9065 -201.6897,0.9873 -202.0224,1.0727 -202.3637,1.1629 -202.7136,1.258 -203.072,1.3581 -203.4389,1.4633 -203.8141,1.5737 -204.1978,1.6896 -204.5897,1.8109 -204.9899,1.9378 -205.3983,2.0705 -205.8147,2.2091 -206.2392,2.3536 -206.6718,2.5042 -207.1122,2.6611 -207.5605,2.8242 -208.0166,2.9939 -208.4804,3.1701 -208.9519,3.3529 -209.431,3.5426 -209.9175,3.7392 -210.4115,3.9428 -210.9129,4.1536 -211.4216,4.3716 -211.9374,4.597 -212.4604,4.8299 -212.9905,5.0703 -213.5275,5.3184 -214.0714,5.5744 -214.6221,5.8383 -215.1795,6.1101 -215.7436,6.3901 -216.3142,6.6784 -216.5547,6.9641 -216.2837,12.8769 -216.018,13.1395 -215.4234,13.3743 -214.8361,13.6015 -214.2562,13.8213 -213.6836,14.0337 -213.1186,14.2388 -212.5611,14.4367 -212.0113,14.6277 -211.4692,14.8117 -210.9349,14.989 -210.4084,15.1595 -209.8899,15.3235 -209.3793,15.4811 -208.8768,15.6324 -208.3824,15.7774 -207.8961,15.9164 -207.4181,16.0494 -206.9484,16.1766 -206.4871,16.2981 -206.0341,16.414 -205.5897,16.5244 -205.1537,16.6295 -204.7263,16.7294 -204.3075,16.8241 -203.8974,16.9139 -203.496,16.9989 -203.1034,17.0791 -202.7196,17.1548 -202.3446,17.226 -201.9785,17.2929 -201.6214,17.3555 -201.2733,17.4141 -200.9342,17.4688 -200.6041,17.5196 -200.2831,17.5667 -199.9713,17.6102 -199.6686,17.6504 -199.3751,17.6872 -199.0909,17.7209 -198.8158,17.7515 -198.5501,17.7792 -197.9165,18.183 -197.1828,24.91 -197.7145,25.4409 -197.968,25.5252 -198.2299,25.6144 -198.5002,25.7085 -198.7789,25.8078 -199.0658,25.9122 -199.3609,26.022 -199.6642,26.1372 -199.9755,26.2579 -200.2949,26.3844 -200.6222,26.5166 -200.9575,26.6548 -201.3005,26.799 -201.6513,26.9494 -202.0098,27.106 -202.3759,27.269 -202.7495,27.4385 -203.1306,27.6146 -203.5191,27.7974 -203.9149,27.9871 -204.318,28.1837 -204.7282,28.3873 -205.1455,28.5981 -205.5699,28.8162 -206.0011,29.0417 -206.4392,29.2746 -206.884,29.5151 -207.3355,29.7633 -207.7936,30.0194 -208.2582,30.2833 -208.7292,30.5552 -209.2065,30.8353 -209.6901,31.1236 -210.1798,31.4201 -210.6755,31.7251 -211.1772,32.0386 -211.6847,32.3607 -212.198,32.6915 -212.717,33.0311 -213.2415,33.3796 -213.7715,33.7371 -213.9743,34.0507 -212.9643,39.8829 -212.6679,40.1101 -212.0485,40.2686 -211.4374,40.4204 -210.8344,40.5657 -210.2398,40.7047 -209.6535,40.8373 -209.0756,40.9639 -208.5062,41.0844 -207.9453,41.1991 -207.393,41.3079 -206.8493,41.4112 -206.3143,41.5089 -205.788,41.6012 -205.2705,41.6883 -204.7618,41.7703 -204.262,41.8472 -203.7711,41.9193 -203.2891,41.9866 -202.8162,42.0493 -202.3523,42.1075 -201.8975,42.1613 -201.4518,42.2109 -201.0152,42.2564 -200.5879,42.298 -200.1697,42.3357 -199.7609,42.3697 -199.3613,42.4001 -198.971,42.427 -198.5901,42.4507 -198.2185,42.4711 -197.8564,42.4885 -197.5036,42.503 -197.1603,42.5147 -196.8265,42.5238 -196.5021,42.5303 -196.1873,42.5344 -195.882,42.5363 -195.5862,42.5361 -195.2999,42.5338 -195.0233,42.5297 -194.7562,42.5239 -194.0769,42.8451 -192.5059,49.4271 -192.9668,50.0205 -193.2078,50.1359 -193.4565,50.2572 -193.7129,50.3845 -193.9769,50.5179 -194.2484,50.6574 -194.5275,50.8033 -194.8139,50.9556 -195.1077,51.1145 -195.4087,51.2799 -195.7169,51.4522 -196.0321,51.6313 -196.3544,51.8173 -196.6836,52.0105 -197.0196,52.2108 -197.3624,52.4184 -197.7118,52.6334 -198.0678,52.8559 -198.4304,53.0859 -198.7993,53.3237 -199.1745,53.5693 -199.556,53.8227 -199.9436,54.0842 -200.3373,54.3537 -200.7368,54.6314 -201.1423,54.9174 -201.5535,55.2118 -201.9703,55.5147 -202.3927,55.8261 -202.8205,56.1462 -203.2537,56.475 -203.6922,56.8127 -204.1358,57.1593 -204.5845,57.5149 -205.0381,57.8796 -205.4965,58.2535 -205.9597,58.6367 -206.4274,59.0292 -206.8997,59.4311 -207.3764,59.8426 -207.8575,60.2637 -208.0193,60.6003 -206.2864,66.2599 -205.9638,66.4482 -205.3295,66.5278 -204.7041,66.6018 -204.0877,66.6704 -203.4803,66.7337 -202.882,66.7919 -202.2928,66.845 -201.7128,66.8932 -201.142,66.9366 -200.5804,66.9754 -200.028,67.0097 -199.485,67.0396 -198.9513,67.0653 -198.4269,67.0868 -197.912,67.1043 -197.4065,67.118 -196.9104,67.128 -196.4238,67.1344 -195.9467,67.1373 -195.4792,67.1369 -195.0212,67.1333 -194.5728,67.1267 -194.134,67.1171 -193.7048,67.1048 -193.2853,67.0898 -192.8754,67.0722 -192.4751,67.0523 -192.0845,67.0302 -191.7036,67.0059 -191.3325,66.9796 -190.971,66.9515 -190.6192,66.9217 -190.2771,66.8902 -189.9448,66.8574 -189.6222,66.8232 -189.3093,66.7878 -189.0062,66.7514 -188.7127,66.7141 -188.429,66.676 -188.1551,66.6373 -187.8908,66.598 -187.1767,66.8316 -184.7931,73.1648 -185.176,73.8112 -185.4006,73.9559 -185.6321,74.1074 -185.8705,74.2659 -186.1157,74.4313 -186.3677,74.6038 -186.6262,74.7835 -186.8913,74.9705 -187.1629,75.1649 -187.4407,75.3668 -187.7249,75.5763 -188.0152,75.7935 -188.3116,76.0185 -188.614,76.2514 -188.9223,76.4922 -189.2363,76.7411 -189.5561,76.9982 -189.8814,77.2636 -190.2123,77.5373 -190.5485,77.8194 -190.89,78.1101 -191.2367,78.4093 -191.5885,78.7173 -191.9452,79.034 -192.3068,79.3596 -192.6732,79.6942 -193.0443,80.0378 -193.4199,80.3905 -193.7999,80.7524 -194.1842,81.1236 -194.5728,81.5041 -194.9655,81.8941 -195.3622,82.2935 -195.7627,82.7026 -196.167,83.1213 -196.575,83.5497 -196.9865,83.9879 -197.4014,84.4359 -197.8196,84.8939 -198.241,85.3619 -198.6654,85.84 -198.7838,86.1942 -196.3552,91.592 -196.0115,91.7383 -195.3722,91.7378 -194.7425,91.7329 -194.1224,91.7237 -193.5119,91.7104 -192.911,91.6931 -192.3198,91.6719 -191.7383,91.6471 -191.1665,91.6186 -190.6045,91.5867 -190.0522,91.5515 -189.5097,91.5131 -188.977,91.4716 -188.4541,91.4273 -187.941,91.3802 -187.4377,91.3304 -186.9443,91.2781 -186.4608,91.2234 -185.9871,91.1666 -185.5233,91.1076 -185.0694,91.0466 -184.6254,90.9838 -184.1912,90.9193 -183.767,90.8533 -183.3526,90.7858 -182.9481,90.7171 -182.5535,90.6471 -182.1688,90.5762 -181.7939,90.5044 -181.429,90.4318 -181.0739,90.3586 -180.7286,90.2849 -180.3932,90.2108 -180.0676,90.1366 -179.7518,90.0622 -179.4458,89.9879 -179.1496,89.9138 -178.8632,89.84 -178.5865,89.7667 -178.3195,89.6939 -178.0623,89.6218 -177.3245,89.764 -174.166,95.7485 -174.4649,96.4379 -174.6695,96.6096 -174.8802,96.789 -175.0969,96.976 -175.3195,97.1708 -175.5478,97.3736 -175.7818,97.5843 -176.0213,97.803 -176.2664,98.0299 -176.5168,98.2651 -176.7724,98.5085 -177.0332,98.7604 -177.2991,99.0208 -177.5699,99.2897 -177.8456,99.5673 -178.1259,99.8536 -178.4109,100.1487 -178.7005,100.4528 -178.9944,100.7658 -179.2926,101.0878 -179.595,101.419 -179.9014,101.7594 -180.2118,102.109 -180.5261,102.4679 -180.844,102.8363 -181.1656,103.2142 -181.4907,103.6016 -181.8191,103.9986 -182.1508,104.4052 -182.4856,104.8217 -182.8234,105.2479 -183.1641,105.684 -183.5076,106.13 -183.8537,106.586 -184.2023,107.0521 -184.5534,107.5282 -184.9067,108.0146 -185.2622,108.5111 -185.6197,109.0179 -185.9791,109.535 -186.3402,110.0625 -186.4133,110.4288 -183.3273,115.4796 -182.9681,115.5817 -182.3339,115.501 -181.7097,115.4172 -181.0957,115.3304 -180.4916,115.2407 -179.8977,115.1482 -179.3138,115.0531 -178.74,114.9556 -178.1763,114.8557 -177.6226,114.7536 -177.0791,114.6494 -176.5457,114.5433 -176.0224,114.4355 -175.5092,114.3259 -175.006,114.2148 -174.513,114.1024 -174.03,113.9887 -173.5572,113.8739 -173.0944,113.758 -172.6416,113.6414 -172.1989,113.524 -171.7662,113.4061 -171.3436,113.2877 -170.931,113.169 -170.5283,113.0501 -170.1356,112.9312 -169.7529,112.8124 -169.3801,112.6938 -169.0172,112.5755 -168.6642,112.4578 -168.3211,112.3406 -167.9878,112.2243 -167.6643,112.1088 -167.3506,111.9943 -167.0466,111.8809 -166.7524,111.7689 -166.4678,111.6582 -166.1929,111.5491 -165.9276,111.4416 -165.6718,111.336 -165.4256,111.2323 -164.6758,111.2809 -160.7921,116.8223 -161.0023,117.5437 -161.1838,117.7397 -161.3704,117.9441 -161.5619,118.1568 -161.7583,118.378 -161.9594,118.6077 -162.1651,118.8461 -162.3754,119.0931 -162.59,119.349 -162.809,119.6136 -163.0321,119.8872 -163.2593,120.1698 -163.4904,120.4614 -163.7254,120.7622 -163.9641,121.0721 -164.2064,121.3913 -164.4521,121.7199 -164.7013,122.0578 -164.9536,122.4052 -165.2091,122.762 -165.4676,123.1285 -165.729,123.5046 -165.9932,123.8903 -166.2599,124.2859 -166.5292,124.6912 -166.8009,125.1064 -167.0748,125.5314 -167.3509,125.9665 -167.629,126.4115 -167.909,126.8666 -168.1907,127.3318 -168.4741,127.8072 -168.7589,128.2927 -169.0452,128.7885 -169.3327,129.2946 -169.6213,129.811 -169.9108,130.3378 -170.2013,130.875 -170.4925,131.4226 -170.7842,131.9806 -171.0764,132.5492 -171.103,132.9218 -167.4083,137.546 -167.0391,137.6023 -166.42,137.4428 -165.8113,137.2814 -165.2129,137.1183 -164.6249,136.9536 -164.0472,136.7874 -163.4798,136.6199 -162.9228,136.4512 -162.3761,136.2814 -161.8396,136.1107 -161.3134,135.9393 -160.7975,135.7672 -160.2918,135.5945 -159.7964,135.4215 -159.3111,135.2483 -158.8361,135.0749 -158.3712,134.9016 -157.9164,134.7284 -157.4718,134.5555 -157.0372,134.383 -156.6127,134.2111 -156.1983,134.0399 -155.7938,133.8694 -155.3993,133.7 -155.0147,133.5315 -154.64,133.3644 -154.2752,133.1985 -153.9202,133.0341 -153.575,132.8713 -153.2396,132.7102 -152.9138,132.551 -152.5977,132.3938 -152.2913,132.2387 -151.9944,132.0858 -151.707,131.9352 -151.4291,131.7872 -151.1607,131.6417 -150.9016,131.499 -150.6518,131.3591 -150.4113,131.2223 -150.1801,131.0885 -149.4301,131.0427 -144.8825,136.0537 -145.0006,136.7958 -145.1561,137.013 -145.3156,137.2391 -145.479,137.4742 -145.6461,137.7182 -145.8168,137.9713 -145.991,138.2336 -146.1687,138.5051 -146.3496,138.7858 -146.5336,139.0758 -146.7207,139.3752 -146.9107,139.684 -147.1034,140.0023 -147.2989,140.3302 -147.4968,140.6676 -147.6972,141.0146 -147.8998,141.3714 -148.1047,141.7379 -148.3115,142.1141 -148.5203,142.5002 -148.7308,142.8962 -148.943,143.3021 -149.1567,143.7179 -149.3718,144.1437 -149.5881,144.5796 -149.8056,145.0256 -150.0241,145.4816 -150.2435,145.9478 -150.4636,146.4242 -150.6844,146.9108 -150.9056,147.4077 -151.1271,147.9148 -151.3489,148.4322 -151.5707,148.96 -151.7925,149.4981 -152.0141,150.0466 -152.2354,150.6055 -152.4562,151.1748 -152.6765,151.7546 -152.896,152.3449 -153.1146,152.9456 -153.0943,153.3185 -148.8492,157.4432 -148.4758,157.4528 -147.8816,157.217 -147.2979,156.9805 -146.7247,156.7437 -146.162,156.5066 -145.6096,156.2693 -145.0678,156.032 -144.5362,155.7949 -144.0151,155.5579 -143.5042,155.3213 -143.0037,155.0853 -142.5134,154.8499 -142.0334,154.6152 -141.5635,154.3815 -141.1038,154.1488 -140.6542,153.9173 -140.2147,153.687 -139.7853,153.4582 -139.3658,153.2309 -138.9563,153.0054 -138.5567,152.7816 -138.1669,152.5597 -137.787,152.34 -137.4169,152.1224 -137.0564,151.9071 -136.7057,151.6943 -136.3645,151.484 -136.0329,151.2764 -135.7109,151.0716 -135.3982,150.8698 -135.095,150.671 -134.8011,150.4754 -134.5165,150.2831 -134.2411,150.0942 -133.9749,149.9088 -133.7177,149.7271 -133.4696,149.5491 -133.2305,149.3751 -133.0002,149.205 -132.7788,149.0391 -132.5661,148.8774 -131.8278,148.738 -126.688,153.1395 -126.7122,153.8905 -126.8392,154.1255 -126.9691,154.3698 -127.1017,154.6235 -127.2369,154.8866 -127.3746,155.1591 -127.5146,155.4411 -127.6568,155.7327 -127.8011,156.0339 -127.9473,156.3447 -128.0954,156.6652 -128.2452,156.9954 -128.3966,157.3353 -128.5493,157.6851 -128.7034,158.0446 -128.8587,158.4141 -129.0151,158.7934 -129.1723,159.1827 -129.3304,159.5819 -129.4891,159.9911 -129.6484,160.4103 -129.808,160.8396 -129.9679,161.2789 -130.1279,161.7284 -130.288,162.1879 -130.4479,162.6576 -130.6075,163.1375 -130.7667,163.6275 -130.9254,164.1277 -131.0834,164.6381 -131.2405,165.1588 -131.3968,165.6897 -131.552,166.2308 -131.7059,166.7822 -131.8585,167.3439 -132.0096,167.9159 -132.1591,168.4981 -132.3068,169.0906 -132.4527,169.6934 -132.5965,170.3065 -132.7381,170.9299 -132.6712,171.2974 -127.9426,174.8575 -127.5709,174.8202 -127.011,174.5117 -126.4615,174.204 -125.9225,173.8972 -125.3939,173.5915 -124.8757,173.2868 -124.3678,172.9835 -123.8703,172.6816 -123.3829,172.3812 -122.9057,172.0824 -122.4387,171.7855 -121.9818,171.4905 -121.535,171.1976 -121.0981,170.9068 -120.6712,170.6183 -120.2542,170.3322 -119.847,170.0487 -119.4496,169.7679 -119.0619,169.4898 -118.6839,169.2147 -118.3155,168.9426 -117.9566,168.6737 -117.6073,168.408 -117.2673,168.1458 -116.9367,167.887 -116.6154,167.6319 -116.3033,167.3805 -116.0003,167.133 -115.7064,166.8895 -115.4216,166.65 -115.1457,166.4148 -114.8786,166.1839 -114.6204,165.9574 -114.3708,165.7355 -114.1299,165.5182 -113.8976,165.3057 -113.6737,165.0981 -113.4583,164.8954 -113.2511,164.6978 -113.0523,164.5055 -112.8615,164.3184 -112.1465,164.0875 -106.4956,167.8102 -106.4254,168.5582 -106.522,168.8073 -106.6203,169.066 -106.72,169.3343 -106.8212,169.6122 -106.9236,169.8999 -107.0272,170.1972 -107.1317,170.5044 -107.2371,170.8212 -107.3433,171.1479 -107.45,171.4844 -107.5572,171.8308 -107.6648,172.187 -107.7725,172.5532 -107.8803,172.9292 -107.9881,173.3152 -108.0957,173.7111 -108.2029,174.117 -108.3097,174.5329 -108.4159,174.9588 -108.5213,175.3947 -108.6259,175.8406 -108.7295,176.2965 -108.8319,176.7624 -108.9331,177.2384 -109.0328,177.7245 -109.131,178.2205 -109.2276,178.7266 -109.3223,179.2428 -109.4151,179.769 -109.5058,180.3053 -109.5943,180.8516 -109.6804,181.4079 -109.764,181.9742 -109.845,182.5506 -109.9232,183.137 -109.9986,183.7334 -110.0709,184.3397 -110.14,184.9561 -110.2058,185.5824 -110.2682,186.2186 -110.1558,186.5748 -105.0182,189.5142 -104.6542,189.4305 -104.1373,189.0543 -103.6308,188.6802 -103.1345,188.3083 -102.6484,187.9387 -102.1725,187.5715 -101.7066,187.2069 -101.2508,186.845 -100.8049,186.4859 -100.3689,186.1297 -99.9428,185.7766 -99.5265,185.4266 -99.1199,185.08 -98.7229,184.7367 -98.3355,184.397 -97.9577,184.061 -97.5892,183.7286 -97.2301,183.4002 -96.8804,183.0758 -96.5398,182.7554 -96.2084,182.4393 -95.8861,182.1275 -95.5728,181.8202 -95.2684,181.5174 -94.9728,181.2192 -94.686,180.9258 -94.4078,180.6373 -94.1383,180.3538 -93.8773,180.0754 -93.6247,179.8021 -93.3804,179.5342 -93.1444,179.2716 -92.9166,179.0145 -92.6968,178.7631 -92.485,178.5173 -92.2811,178.2774 -92.0851,178.0433 -91.8967,177.8152 -91.716,177.5933 -91.5428,177.3775 -91.377,177.168 -90.6966,176.8494 -84.6236,179.8344 -84.4603,180.5678 -84.5249,180.827 -84.59,181.0959 -84.6553,181.3746 -84.7208,181.6631 -84.7864,181.9613 -84.8519,182.2693 -84.9171,182.587 -84.9819,182.9146 -85.0463,183.252 -85.11,183.5993 -85.173,183.9564 -85.235,184.3233 -85.296,184.7 -85.3559,185.0866 -85.4144,185.4831 -85.4715,185.8894 -85.527,186.3055 -85.5809,186.7315 -85.6328,187.1673 -85.6828,187.613 -85.7307,188.0684 -85.7763,188.5338 -85.8195,189.0089 -85.8602,189.4938 -85.8983,189.9885 -85.9336,190.4929 -85.9659,191.0072 -85.9952,191.5311 -86.0213,192.0648 -86.0441,192.6082 -86.0634,193.1613 -86.0791,193.724 -86.0911,194.2964 -86.0992,194.8784 -86.1033,195.4699 -86.1033,196.071 -86.099,196.6817 -86.0904,197.3018 -86.0772,197.9314 -86.0593,198.5705 -85.9032,198.9098 -80.4377,201.1821 -80.087,201.0535 -79.6214,200.6155 -79.1657,200.1808 -78.72,199.7496 -78.284,199.322 -77.8578,198.898 -77.4414,198.4779 -77.0345,198.0617 -76.6371,197.6496 -76.2493,197.2416 -75.8708,196.8378 -75.5016,196.4385 -75.1416,196.0436 -74.7908,195.6533 -74.4491,195.2677 -74.1163,194.8869 -73.7924,194.5111 -73.4773,194.1402 -73.171,193.7745 -72.8733,193.414 -72.5841,193.0588 -72.3034,192.7091 -72.031,192.3649 -71.767,192.0263 -71.5111,191.6935 -71.2633,191.3665 -71.0235,191.0454 -70.7917,190.7303 -70.5676,190.4214 -70.3512,190.1186 -70.1425,189.8221 -69.9412,189.5321 -69.7474,189.2485 -69.5609,188.9715 -69.3816,188.7011 -69.2094,188.4375 -69.0442,188.1807 -68.8859,187.9308 -68.7345,187.688 -68.5897,187.4522 -68.4515,187.2235 -67.8163,186.8221 -61.4171,189.0225 -61.1631,189.7296 -61.1948,189.9949 -61.2256,190.2699 -61.2555,190.5545 -61.2844,190.8489 -61.312,191.153 -61.3384,191.4668 -61.3633,191.7902 -61.3866,192.1234 -61.4081,192.4662 -61.4278,192.8187 -61.4455,193.1808 -61.4611,193.5526 -61.4744,193.934 -61.4853,194.3251 -61.4937,194.7257 -61.4994,195.136 -61.5024,195.5558 -61.5024,195.9852 -61.4993,196.4241 -61.493,196.8725 -61.4834,197.3304 -61.4704,197.7977 -61.4537,198.2745 -61.4333,198.7607 -61.4091,199.2563 -61.3809,199.7612 -61.3485,200.2754 -61.3119,200.7989 -61.2709,201.3317 -61.2254,201.8736 -61.1752,202.4248 -61.1203,202.985 -61.0604,203.5544 -60.9955,204.1328 -60.9255,204.7202 -60.8501,205.3166 -60.7694,205.9219 -60.683,206.536 -60.591,207.159 -60.4932,207.7908 -60.2958,208.1078 -54.5886,209.6772 -54.2569,209.5057 -53.8498,209.0128 -53.4522,208.5244 -53.064,208.0407 -52.6851,207.5618 -52.3154,207.0878 -51.9548,206.6188 -51.6033,206.1549 -51.2608,205.6962 -50.9271,205.2428 -50.6022,204.7948 -50.286,204.3523 -49.9783,203.9155 -49.6792,203.4843 -49.3885,203.0589 -49.106,202.6394 -48.8318,202.2259 -48.5657,201.8185 -48.3076,201.4173 -48.0574,201.0223 -47.8151,200.6337 -47.5804,200.2516 -47.3533,199.8759 -47.1338,199.5069 -46.9217,199.1447 -46.7168,198.7892 -46.5192,198.4405 -46.3286,198.0989 -46.145,197.7643 -45.9683,197.4368 -45.7984,197.1165 -45.6351,196.8035 -45.4783,196.4979 -45.328,196.1997 -45.184,195.909 -45.0462,195.6259 -44.9145,195.3504 -44.7888,195.0826 -44.6689,194.8227 -44.5548,194.5706 -44.4464,194.3265 -43.8665,193.8486 -37.242,195.2296 -36.9014,195.8993 -36.8995,196.1665 -36.8957,196.4431 -36.8897,196.7293 -36.8814,197.025 -36.8707,197.3301 -36.8576,197.6447 -36.8417,197.9688 -36.8231,198.3022 -36.8015,198.645 -36.7769,198.9972 -36.749,199.3587 -36.7179,199.7295 -36.6833,200.1096 -36.6451,200.4989 -36.6032,200.8975 -36.5575,201.3052 -36.5078,201.7221 -36.4539,202.1481 -36.3959,202.5831 -36.3335,203.0272 -36.2666,203.4803 -36.195,203.9423 -36.1187,204.4133 -36.0376,204.8931 -35.9514,205.3817 -35.8601,205.8791 -35.7636,206.3852 -35.6616,206.9 -35.5542,207.4234 -35.4411,207.9554 -35.3223,208.4959 -35.1975,209.0448 -35.0668,209.6022 -34.9299,210.1679 -34.7868,210.7419 -34.6373,211.3241 -34.4813,211.9145 -34.3187,212.513 -34.1494,213.1196 -33.9731,213.7341 -33.7375,214.0239 -27.8787,214.8656 -27.571,214.6539 -27.2289,214.1138 -26.8957,213.5795 -26.5711,213.0509 -26.2552,212.5283 -25.9479,212.0117 -25.6489,211.5013 -25.3584,210.997 -25.076,210.4989 -24.8018,210.0073 -24.5356,209.5221 -24.2773,209.0435 -24.0269,208.5715 -23.7841,208.1062 -23.549,207.6477 -23.3214,207.1962 -23.1011,206.7516 -22.8882,206.314 -22.6824,205.8836 -22.4837,205.4604 -22.2919,205.0445 -22.107,204.6359 -21.9289,204.2348 -21.7573,203.8412 -21.5922,203.4552 -21.4336,203.0768 -21.2812,202.7062 -21.1349,202.3433 -20.9947,201.9884 -20.8604,201.6413 -20.732,201.3023 -20.6092,200.9713 -20.492,200.6484 -20.3802,200.3337 -20.2738,200.0272 -20.1726,199.7291 -20.0764,199.4393 -19.9853,199.1579 -19.8989,198.885 -19.8173,198.6206 -19.7403,198.3647 -19.225,197.818 -12.4796,198.3578 -12.0577,198.9795 -12.0224,199.2444 -11.9839,199.5184 -11.9421,199.8015 -11.8968,200.0939 -11.848,200.3953 -11.7955,200.7057 -11.7391,201.0252 -11.6788,201.3537 -11.6145,201.6911 -11.5459,202.0374 -11.473,202.3926 -11.3956,202.7565 -11.3136,203.1293 -11.227,203.5108 -11.1355,203.9009 -11.039,204.2997 -10.9374,204.7071 -10.8306,205.123 -10.7185,205.5473 -10.6009,205.9801 -10.4777,206.4212 -10.3489,206.8706 -10.2142,207.3283 -10.0735,207.7941 -9.9268,208.2681 -9.7739,208.7501 -9.6146,209.2401 -9.449,209.7381 -9.2768,210.2439 -9.0979,210.7575 -8.9123,211.2789 -8.7197,211.8079 -8.5202,212.3445 -8.3135,212.8886 -8.0996,213.4401 -7.8783,213.999 -7.6495,214.5652 -7.4132,215.1386 -7.1691,215.7191 -6.9173,216.3067 -6.6472,216.5647 -0.729,216.6654 -0.4503,216.4168 -0.1786,215.8381 0.085,215.2662 0.3408,214.7012 0.5887,214.1431 0.8289,213.5921 1.0614,213.0482 1.2865,212.5114 1.5042,211.9819 1.7147,211.4598 1.918,210.9451 2.1142,210.4379 2.3035,209.9382 2.486,209.4462 2.6619,208.9619 2.8311,208.4853 2.9939,208.0166 3.1503,207.5558 3.3005,207.103 3.4446,206.6582 3.5827,206.2216 3.715,205.793 3.8415,205.3728 3.9624,204.9608 4.0777,204.5571 4.1877,204.1618 4.2925,203.775 4.3921,203.3967 4.4867,203.027 4.5764,202.6658 4.6614,202.3133 4.7417,201.9696 4.8175,201.6345 4.889,201.3083 4.9561,200.9909 5.0192,200.6824 5.0782,200.3829 5.1334,200.0923 5.1849,199.8107 5.2327,199.5382 5.277,199.2747 5.7198,198.6677 12.4796,198.3578 12.9761,198.9218 13.0443,199.1801 13.1169,199.4471 13.1939,199.7228 13.2754,200.0071 13.3616,200.3 13.4526,200.6015 13.5486,200.9114 13.6496,201.2297 13.7557,201.5564 13.8671,201.8913 13.984,202.2346 14.1064,202.586 14.2344,202.9455 14.3682,203.3132 14.5079,203.6888 14.6536,204.0723 14.8054,204.4637 14.9635,204.8629 15.1279,205.2699 15.2988,205.6845 15.4763,206.1067 15.6605,206.5364 15.8515,206.9736 16.0494,207.4181 16.2544,207.87 16.4665,208.3291 16.6859,208.7953 16.9127,209.2685 17.1469,209.7488 17.3887,210.2359 17.6383,210.7299 17.8956,211.2306 18.1608,211.7379 18.4341,212.2518 18.7154,212.7722 19.005,213.299 19.303,213.832 19.6093,214.3713 19.9242,214.9166 20.2477,215.468 20.548,215.6901 26.4321,215.0483 26.6774,214.7667 26.8745,214.1586 27.0644,213.5582 27.2473,212.9655 27.4233,212.3808 27.5925,211.804 27.7551,211.2352 27.9111,210.6745 28.0608,210.1219 28.2041,209.5775 28.3413,209.0413 28.4724,208.5135 28.5976,207.9941 28.717,207.483 28.8307,206.9805 28.9389,206.4865 29.0417,206.0011 29.1391,205.5243 29.2314,205.0563 29.3186,204.5969 29.4009,204.1464 29.4784,203.7047 29.5512,203.2719 29.6195,202.848 29.6834,202.433 29.743,202.0271 29.7984,201.6302 29.8498,201.2424 29.8973,200.8637 29.9411,200.4942 29.9812,200.1338 30.0178,199.7827 30.051,199.4408 30.081,199.1082 30.1079,198.7849 30.1318,198.4709 30.1528,198.1663 30.1712,197.8711 30.1869,197.5853 30.2002,197.3089 30.2112,197.042 30.5744,196.3842 37.242,195.2296 37.8053,195.7269 37.9054,195.9746 38.0108,196.2304 38.1217,196.4943 38.2383,196.7662 38.3605,197.0459 38.4886,197.3336 38.6226,197.629 38.7627,197.9322 38.9089,198.243 39.0615,198.5614 39.2204,198.8872 39.3859,199.2205 39.558,199.5612 39.7368,199.9092 39.9225,200.2643 40.1151,200.6266 40.3148,200.9958 40.5216,201.3721 40.7358,201.7552 40.9573,202.1452 41.1863,202.5418 41.4229,202.945 41.6672,203.3548 41.9193,203.7711 42.1792,204.1937 42.4472,204.6225 42.7233,205.0575 43.0076,205.4987 43.3002,205.9458 43.6012,206.3988 43.9106,206.8575 44.2287,207.322 44.5554,207.7921 44.8909,208.2677 45.2353,208.7488 45.5886,209.2351 45.951,209.7266 46.3225,210.2232 46.7033,210.7248 47.0933,211.2313 47.4191,211.414 53.1764,210.0398 53.3845,209.7297 53.5037,209.1016 53.6169,208.4821 53.7241,207.8712 53.8254,207.2691 53.921,206.6756 54.011,206.0909 54.0956,205.515 54.1747,204.948 54.2487,204.39 54.3176,203.8409 54.3816,203.3008 54.4407,202.7697 54.4951,202.2478 54.5449,201.735 54.5903,201.2313 54.6314,200.7368 54.6684,200.2516 54.7012,199.7757 54.7302,199.309 54.7554,198.8517 54.7769,198.4038 54.7949,197.9653 54.8095,197.5361 54.8209,197.1165 54.8292,196.7063 54.8344,196.3056 54.8368,195.9144 54.8365,195.5327 54.8336,195.1606 54.8282,194.7981 54.8205,194.4451 54.8106,194.1017 54.7987,193.768 54.7848,193.4439 54.7692,193.1294 54.7519,192.8246 54.7331,192.5294 54.7129,192.2438 54.6914,191.968 54.6688,191.7018 54.9468,191.0037 61.4171,189.0225 62.0383,189.4453 62.1686,189.6785 62.3053,189.9191 62.4484,190.167 62.5981,190.4221 62.7544,190.6843 62.9175,190.9537 63.0875,191.23 63.2645,191.5132 63.4486,191.8032 63.6398,192.0999 63.8384,192.4033 64.0443,192.7133 64.2577,193.0297 64.4787,193.3525 64.7075,193.6815 64.944,194.0168 65.1884,194.3582 65.4407,194.7055 65.7012,195.0588 65.9698,195.4179 66.2467,195.7827 66.532,196.1531 66.8257,196.529 67.128,196.9104 67.4389,197.2971 67.7585,197.689 68.087,198.086 68.4243,198.488 68.7706,198.8949 69.126,199.3066 69.4905,199.723 69.8643,200.1439 70.2473,200.5694 70.6398,200.9992 71.0418,201.4332 71.4533,201.8714 71.8744,202.3136 72.3052,202.7598 72.7458,203.2097 73.1963,203.6633 73.5424,203.8037 79.082,201.7188 79.2496,201.385 79.2892,200.747 79.3239,200.1182 79.3536,199.4987 79.3787,198.8886 79.3991,198.2878 79.4152,197.6964 79.4269,197.1145 79.4344,196.5421 79.4378,195.9791 79.4373,195.4257 79.4331,194.8819 79.4252,194.3476 79.4137,193.8229 79.3989,193.3079 79.3808,192.8025 79.3596,192.3068 79.3355,191.8208 79.3084,191.3445 79.2787,190.8779 79.2463,190.4211 79.2116,189.974 79.1745,189.5366 79.1352,189.1091 79.0939,188.6913 79.0506,188.2833 79.0056,187.8851 78.959,187.4966 78.9108,187.118 78.8613,186.7492 78.8105,186.3902 78.7587,186.041 78.7058,185.7016 78.6522,185.372 78.5978,185.0522 78.5429,184.7421 78.4875,184.4419 78.4318,184.1514 78.376,183.8706 78.3201,183.5996 78.2644,183.3383 78.4526,182.6109 84.6236,179.8344 85.2928,180.176 85.4514,180.391 85.6171,180.6126 85.7902,180.8406 85.9707,181.0749 86.1587,181.3155 86.3543,181.5623 86.5575,181.8151 86.7686,182.0739 86.9876,182.3386 87.2145,182.609 87.4495,182.8851 87.6927,183.1668 87.9441,183.454 88.2038,183.7465 88.472,184.0443 88.7486,184.3473 89.0339,184.6553 89.3278,184.9683 89.6305,185.2861 89.942,185.6087 90.2624,185.936 90.5919,186.2677 90.9304,186.6039 91.2781,186.9443 91.635,187.289 92.0012,187.6377 92.3768,187.9904 92.7619,188.347 93.1565,188.7073 93.5606,189.0712 93.9745,189.4386 94.3981,189.8094 94.8314,190.1835 95.2747,190.5607 95.7279,190.941 96.191,191.3241 96.6643,191.7101 97.1476,192.0987 97.6411,192.4899 98.1449,192.8834 98.5059,192.9794 103.7405,190.2166 103.865,189.8644 103.8243,189.2265 103.7798,188.5983 103.7317,187.98 103.6801,187.3715 103.6251,186.7729 103.5669,186.1842 103.5056,185.6054 103.4413,185.0365 103.3741,184.4776 103.3043,183.9286 103.2319,183.3896 103.1571,182.8605 103.08,182.3414 103.0007,181.8323 102.9195,181.3332 102.8363,180.844 102.7514,180.3649 102.6649,179.8957 102.5769,179.4365 102.4876,178.9873 102.397,178.5481 102.3054,178.1189 102.2128,177.6996 102.1195,177.2903 102.0255,176.8909 101.9309,176.5015 101.8359,176.122 101.7407,175.7524 101.6453,175.3927 101.55,175.0429 101.4548,174.7029 101.3598,174.3728 101.2652,174.0525 101.1712,173.7421 101.0779,173.4413 100.9853,173.1504 100.8936,172.8692 100.8031,172.5976 100.7137,172.3357 100.6256,172.0835 100.7212,171.3383 106.4956,167.8102 107.2023,168.0652 107.3866,168.2587 107.5788,168.4577 107.7791,168.6622 107.9875,168.8721 108.2042,169.0872 108.4291,169.3075 108.6625,169.5329 108.9043,169.7632 109.1547,169.9983 109.4138,170.2382 109.6815,170.4827 109.9581,170.7317 110.2435,170.9851 110.5378,171.2427 110.8412,171.5046 111.1536,171.7705 111.4753,172.0403 111.8061,172.314 112.1462,172.5914 112.4957,172.8724 112.8547,173.1569 113.2231,173.4447 113.6011,173.7358 113.9887,174.03 114.386,174.3272 114.793,174.6273 115.2099,174.9302 115.6366,175.2357 116.0732,175.5437 116.5198,175.854 116.9764,176.1667 117.4431,176.4815 117.92,176.7983 118.407,177.117 118.9043,177.4375 119.4118,177.7595 119.9297,178.0831 120.4579,178.4081 120.9966,178.7343 121.5457,179.0617 121.9158,179.1116 126.7629,175.7145 126.8423,175.3496 126.722,174.7217 126.5991,174.1041 126.4739,173.4966 126.3464,172.8994 126.2168,172.3125 126.0853,171.7357 125.9519,171.1691 125.8168,170.6128 125.6802,170.0667 125.5421,169.5308 125.4027,169.0051 125.2622,168.4896 125.1206,167.9842 124.9782,167.4891 124.835,167.0041 124.6912,166.5292 124.5469,166.0645 124.4023,165.6099 124.2574,165.1653 124.1125,164.7309 123.9676,164.3065 123.8229,163.8921 123.6785,163.4877 123.5346,163.0933 123.3913,162.7089 123.2486,162.3344 123.1069,161.9698 122.9661,161.615 122.8264,161.2701 122.6879,160.935 122.5508,160.6097 122.4153,160.2941 122.2813,159.9882 122.1491,159.6919 122.0188,159.4053 121.8905,159.1282 121.7643,158.8607 121.6404,158.6027 121.5189,158.3541 121.3999,158.1149 121.4014,157.3635 126.688,153.1395 127.4212,153.3039 127.6282,153.4728 127.8438,153.6462 128.0682,153.824 128.3013,154.0061 128.5432,154.1924 128.794,154.3827 129.0538,154.5771 129.3226,154.7752 129.6005,154.9771 129.8875,155.1826 130.1838,155.3916 130.4894,155.604 130.8043,155.8196 131.1286,156.0384 131.4624,156.2601 131.8057,156.4848 132.1586,156.7122 132.5211,156.9423 132.8934,157.1749 133.2753,157.4098 133.6671,157.6471 134.0687,157.8865 134.4802,158.1279 134.9016,158.3712 135.333,158.6163 135.7744,158.863 136.226,159.1112 136.6876,159.3608 137.1594,159.6116 137.6413,159.8636 138.1336,160.1165 138.636,160.3704 139.1488,160.6249 139.672,160.88 140.2055,161.1357 140.7494,161.3916 141.3037,161.6477 141.8685,161.9039 142.4438,162.1601 143.0297,162.416 143.4031,162.4192 147.7862,158.4414 147.8192,158.0693 147.6212,157.4615 147.4219,156.8641 147.2215,156.2772 147.0202,155.7007 146.8181,155.1346 146.6153,154.5788 146.4119,154.0335 146.2082,153.4985 146.0041,152.9738 145.8,152.4594 145.5958,151.9553 145.3918,151.4615 145.188,150.9779 144.9846,150.5045 144.7818,150.0412 144.5796,149.5881 144.3782,149.1452 144.1777,148.7122 143.9783,148.2894 143.7801,147.8765 143.5831,147.4736 143.3876,147.0806 143.1937,146.6975 143.0015,146.3243 142.8111,145.9609 142.6227,145.6072 142.4363,145.2632 142.2522,144.9289 142.0704,144.6043 141.891,144.2891 141.7142,143.9836 141.5402,143.6874 141.3689,143.4007 141.2006,143.1234 141.0354,142.8553 140.8734,142.5965 140.7147,142.3469 140.5594,142.1064 140.4077,141.875 140.2597,141.6526 140.1669,140.907 144.8825,136.0537 145.6305,136.125 145.8571,136.2666 146.0927,136.4115 146.3376,136.5598 146.5917,136.7113 146.855,136.8658 147.1277,137.0232 147.4098,137.1834 147.7013,137.3464 148.0023,137.5118 148.3129,137.6797 148.633,137.85 148.9628,138.0224 149.3022,138.1968 149.6514,138.3732 150.0104,138.5514 150.3791,138.7312 150.7577,138.9126 151.1463,139.0954 151.5447,139.2795 151.9531,139.4648 152.3715,139.6511 152.7999,139.8382 153.2384,140.0262 153.687,140.2147 154.1457,140.4038 154.6146,140.5932 155.0937,140.7829 155.583,140.9727 156.0825,141.1624 156.5922,141.352 157.1123,141.5413 157.6426,141.7301 158.1832,141.9184 158.7342,142.1059 159.2956,142.2926 159.8673,142.4784 160.4493,142.663 161.0418,142.8464 161.6447,143.0284 162.2579,143.2089 162.6289,143.1653 166.4789,138.6695 166.465,138.2963 166.1923,137.718 165.9197,137.1504 165.6473,136.5932 165.3754,136.0464 165.1039,135.5101 164.833,134.9842 164.5629,134.4686 164.2937,133.9633 164.0256,133.4684 163.7585,132.9836 163.4928,132.5091 163.2285,132.0447 162.9657,131.5905 162.7046,131.1463 162.4453,130.7121 162.1879,130.288 161.9326,129.8737 161.6794,129.4693 161.4286,129.0748 161.1802,128.69 160.9343,128.315 160.6911,127.9496 160.4507,127.5939 160.2132,127.2477 159.9788,126.9109 159.7475,126.5837 159.5195,126.2658 159.2949,125.9572 159.0738,125.6579 158.8564,125.3677 158.6427,125.0867 158.4329,124.8147 158.2271,124.5517 158.0253,124.2977 157.8278,124.0524 157.6347,123.816 157.4459,123.5882 157.2617,123.3691 157.0822,123.1586 156.9075,122.9565 156.722,122.2284 160.7921,116.8223 161.5431,116.7993 161.7857,116.9113 162.0376,117.0256 162.2991,117.142 162.5702,117.2605 162.8508,117.3807 163.1411,117.5027 163.441,117.6264 163.7507,117.7515 164.0701,117.8779 164.3992,118.0056 164.7382,118.1343 165.0869,118.264 165.4456,118.3946 165.8141,118.5258 166.1926,118.6576 166.581,118.7898 166.9793,118.9223 167.3877,119.055 167.8061,119.1877 168.2345,119.3203 168.6729,119.4527 169.1214,119.5847 169.58,119.7161 170.0487,119.847 170.5275,119.9771 171.0165,120.1063 171.5155,120.2344 172.0247,120.3613 172.5441,120.487 173.0736,120.6112 173.6132,120.7338 174.163,120.8546 174.723,120.9737 175.2932,121.0907 175.8735,121.2056 176.4639,121.3182 177.0646,121.4285 177.6753,121.5362 178.2963,121.6412 178.9273,121.7434 179.2899,121.6536 182.546,116.7107 182.4855,116.3422 182.1425,115.8027 181.8009,115.2736 181.4608,114.755 181.1225,114.2466 180.7859,113.7485 180.4513,113.2607 180.1187,112.7831 179.7883,112.3155 179.4602,111.8581 179.1345,111.4106 178.8114,110.9731 178.491,110.5456 178.1733,110.1278 177.8586,109.7199 177.5469,109.3216 177.2384,108.9331 176.9332,108.5541 176.6313,108.1846 176.333,107.8246 176.0383,107.474 175.7474,107.1328 175.4603,106.8008 175.1772,106.4779 174.8982,106.1642 174.6234,105.8596 174.353,105.5639 174.0869,105.277 173.8254,104.999 173.5686,104.7298 173.3165,104.4692 173.0693,104.2172 172.827,103.9736 172.5899,103.7385 172.3579,103.5117 172.1312,103.2932 171.9099,103.0828 171.6941,102.8805 171.4839,102.6862 171.2794,102.4998 171.0808,102.3212 170.8055,101.6221 174.166,95.7485 174.9081,95.6315 175.1628,95.7123 175.4271,95.7941 175.7012,95.8769 175.9849,95.9604 176.2784,96.0445 176.5817,96.1292 176.8948,96.2143 177.2176,96.2996 177.5503,96.385 177.8929,96.4704 178.2453,96.5556 178.6076,96.6406 178.9798,96.7251 179.3618,96.8091 179.7538,96.8925 180.1557,96.975 180.5676,97.0565 180.9893,97.1369 181.421,97.2162 181.8627,97.294 182.3143,97.3704 182.7758,97.4452 183.2473,97.5181 183.7286,97.5892 184.22,97.6583 184.7212,97.7251 185.2324,97.7897 185.7535,97.8518 186.2845,97.9114 186.8254,97.9682 187.3762,98.0222 187.9368,98.0733 188.5073,98.1212 189.0876,98.1658 189.6777,98.2071 190.2777,98.2448 190.8874,98.2789 191.5068,98.3092 192.136,98.3355 192.7749,98.3578 193.1233,98.2233 195.7343,92.9113 195.628,92.5533 195.2201,92.061 194.8149,91.579 194.4126,91.107 194.0132,90.6451 193.6168,90.1931 193.2237,89.7511 192.8339,89.3189 192.4475,88.8964 192.0646,88.4837 191.6855,88.0806 191.3101,87.6871 190.9386,87.303 190.5711,86.9284 190.2077,86.5631 189.8486,86.2071 189.4938,85.8602 189.1435,85.5225 188.7977,85.1938 188.4566,84.874 188.1203,84.5631 187.7889,84.261 187.4625,83.9676 187.1411,83.6828 186.825,83.4065 186.5142,83.1387 186.2088,82.8792 185.9089,82.628 185.6146,82.385 185.3261,82.15 185.0433,81.9231 184.7664,81.704 184.4956,81.4928 184.2308,81.2892 183.9723,81.0933 183.72,80.9049 183.4741,80.7239 183.2346,80.5503 183.0017,80.3838 182.7755,80.2245 182.556,80.0722 182.1953,79.4131 184.7931,73.1648 185.5147,72.9557 185.7775,73.0039 186.05,73.0519 186.3323,73.0997 186.6242,73.1469 186.926,73.1936 187.2375,73.2396 187.5587,73.2848 187.8898,73.3289 188.2305,73.372 188.5811,73.4138 188.9414,73.4542 189.3115,73.4931 189.6913,73.5303 190.0809,73.5658 190.4803,73.5993 190.8893,73.6308 191.3082,73.6601 191.7367,73.687 192.1749,73.7115 192.6228,73.7334 193.0804,73.7526 193.5477,73.7689 194.0246,73.7822 194.5111,73.7924 195.0072,73.7993 195.5129,73.8028 196.0281,73.8028 196.5529,73.7992 197.0872,73.7917 197.6309,73.7803 198.1841,73.7648 198.7467,73.7452 199.3187,73.7212 199.9,73.6928 200.4907,73.6597 201.0906,73.622 201.6998,73.5794 202.3182,73.5318 202.9457,73.4791 203.5823,73.4212 203.9112,73.244 205.8358,67.6467 205.6855,67.3048 205.2191,66.8675 204.7566,66.4401 204.2983,66.0222 203.8441,65.614 203.3943,65.2153 202.9489,64.826 202.5079,64.4461 202.0716,64.0754 201.6401,63.7139 201.2134,63.3615 200.7916,63.0181 200.3749,62.6837 199.9634,62.3581 199.5571,62.0412 199.1562,61.733 198.7607,61.4333 198.3708,61.1422 197.9866,60.8594 197.6081,60.5849 197.2355,60.3186 196.8688,60.0604 196.5082,59.8102 196.1537,59.5679 195.8055,59.3335 195.4635,59.1067 195.128,58.8876 194.799,58.6759 194.4766,58.4717 194.1608,58.2748 193.8519,58.085 193.5497,57.9024 193.2545,57.7268 192.9664,57.558 192.6853,57.396 192.4114,57.2407 192.1447,57.092 191.8854,56.9497 191.6335,56.8138 191.389,56.6841 191.1522,56.5605 190.7117,55.9518 192.5059,49.4271 193.1957,49.1292 193.4624,49.1441 193.7388,49.1576 194.0248,49.1696 194.3204,49.1799 194.6256,49.1885 194.9404,49.195 195.2648,49.1996 195.5987,49.2019 195.9422,49.2019 196.2953,49.1994 196.6578,49.1943 197.0298,49.1866 197.4114,49.1759 197.8023,49.1622 198.2027,49.1454 198.6125,49.1254 199.0317,49.102 199.4602,49.075 199.898,49.0444 200.3452,49.01 200.8016,48.9716 201.2672,48.9292 201.742,48.8827 202.2259,48.8318 202.719,48.7765 203.2211,48.7166 203.7323,48.652 204.2525,48.5826 204.7816,48.5083 205.3196,48.4288 205.8665,48.3441 206.4223,48.2541 206.9867,48.1586 207.5599,48.0576 208.1418,47.9508 208.7322,47.8381 209.3313,47.7195 209.9388,47.5948 210.5548,47.4639 211.1791,47.3266 211.4832,47.1096 212.6911,41.3152 212.4991,40.9948 211.9816,40.6195 211.4692,40.2533 210.9621,39.8963 210.4604,39.5482 209.9641,39.209 209.4734,38.8786 208.9883,38.5569 208.509,38.2439 208.0356,37.9393 207.5681,37.6432 207.1066,37.3554 206.6513,37.0758 206.2021,36.8043 205.7593,36.5408 205.323,36.2853 204.8931,36.0376 204.4697,35.7976 204.0531,35.5652 203.6432,35.3403 203.2401,35.1228 202.844,34.9126 202.4549,34.7096 202.0728,34.5136 201.6979,34.3247 201.3303,34.1426 200.9699,33.9672 200.617,33.7984 200.2715,33.6362 199.9336,33.4804 199.6033,33.3309 199.2806,33.1876 198.9657,33.0504 198.6587,32.9191 198.3595,32.7936 198.0683,32.6738 197.7851,32.5597 197.51,32.4511 197.243,32.3478 196.9843,32.2497 196.7338,32.1568 196.2205,31.6081 197.1828,24.91 197.8298,24.528 198.0963,24.5093 198.3722,24.4881 198.6574,24.4641 198.952,24.4373 199.2559,24.4075 199.569,24.3746 199.8914,24.3384 200.223,24.2989 200.5638,24.2558 200.9137,24.2091 201.2728,24.1587 201.6409,24.1043 202.0181,24.0459 202.4043,23.9834 202.7994,23.9165 203.2034,23.8453 203.6164,23.7695 204.0381,23.689 204.4687,23.6038 204.908,23.5136 205.356,23.4184 205.8126,23.318 206.2778,23.2123 206.7516,23.1011 207.2338,22.9845 207.7245,22.8621 208.2235,22.734 208.7309,22.5999 209.2465,22.4598 209.7704,22.3136 210.3024,22.161 210.8424,22.0021 211.3905,21.8366 211.9465,21.6645 212.5103,21.4856 213.082,21.2998 213.6615,21.1071 214.2486,20.9072 214.8433,20.7001 215.4455,20.4856 215.72,20.2323 216.1921,14.3321 215.9615,14.0384 215.401,13.7309 214.8468,13.4318 214.299,13.1411 213.7575,12.8587 213.2227,12.5843 212.6944,12.3181 212.1729,12.0597 211.6581,11.8092 211.1502,11.5664 210.6493,11.3312 210.1554,11.1035 209.6686,10.8831 209.189,10.6701 208.7167,10.4642 208.2517,10.2654 207.7941,10.0735 207.3441,9.8885 206.9016,9.7101 206.4667,9.5384 206.0396,9.3731 205.6202,9.2142 205.2087,9.0616 204.8051,8.9151 204.4095,8.7746 204.0219,8.64 203.6424,8.5111 203.2711,8.388 202.9081,8.2703 202.5533,8.1581 202.2068,8.0512 201.8688,7.9494 201.5391,7.8527 201.2181,7.7609 200.9055,7.674 200.6016,7.5917 200.3063,7.5139 200.0198,7.4406 199.742,7.3716 199.473,7.3067 199.2128,7.246 198.6348,6.7659 "/><g class="guides"><polyline fill="none" stroke="#444" stroke-width="0.5" stroke-miterlimit="10" points="10,0 -10,0"/><polyline fill="none" stroke="#444" stroke-width="0.5" stroke-miterlimit="10" points="0,10 0,-10"/></g><circle fill="#c00" class="firstmarker" stroke="none" stroke-miterlimit="10" cx="208.1148" cy="-9.5399" r="3.2708"/><g class="geartext"><g class="text"><polyline fill="none" stroke="#444" stroke-width="0.5" stroke-linecap="square" stroke-miterlimit="1"  points="27.94 -166.42 24.98 -166.89 22.01 -167.31 19.03 -167.67 16.05 -167.99 "/><polyline fill="none" stroke="#444" stroke-width="0.5" stroke-linecap="square" stroke-miterlimit="1"  points="21.23 -161.36 22.79 -173.26 "/><polyline fill="none" stroke="#444" stroke-width="0.5" stroke-linecap="square" stroke-miterlimit="1"  points="28.94 -172.34 25.42 -169.86 22.01 -167.31 18.69 -164.69 15.48 -162.01 "/><polyline fill="none" stroke="#444" stroke-width="0.5" stroke-linecap="square" stroke-miterlimit="1"  points="26.95 -160.5 24.54 -163.92 22.01 -167.31 19.37 -170.65 16.62 -173.96 "/><polyline fill="none" stroke="#444" stroke-width="0.5" stroke-linecap="square" stroke-miterlimit="1"  points="35.04 -171.2 38.74 -173.48 41.81 -172.76 44.88 -171.99 47.12 -168.28 46.31 -165.39 42.61 -163.28 44.69 -159.61 43.88 -156.72 40.33 -154.57 37.58 -155.27 34.81 -155.91 32.64 -159.44 "/><polyline fill="none" stroke="#444" stroke-width="0.5" stroke-linecap="square" stroke-miterlimit="1"  points="39.7 -164.01 42.61 -163.28 "/><polyline fill="none" stroke="#444" stroke-width="0.5" stroke-linecap="square" stroke-miterlimit="1"  points="80.27 -158.59 72.15 -142.53 71.56 -147.84 70.81 -153.17 69.89 -158.53 68.8 -163.89 61.84 -147.3 "/><polyline fill="none" stroke="#444" stroke-width="0.5" stroke-linecap="square" stroke-miterlimit="1"  points="93.44 -144.11 90.86 -145.75 88.26 -147.34 85.62 -148.88 82.96 -150.38 "/><polyline fill="none" stroke="#444" stroke-width="0.5" stroke-linecap="square" stroke-miterlimit="1"  points="90.17 -139.07 87.69 -140.66 85.17 -142.19 82.63 -143.68 80.06 -145.13 "/><polyline fill="none" stroke="#444" stroke-width="0.5" stroke-linecap="square" stroke-miterlimit="1"  points="112.03 -138 109.56 -139.97 107.05 -141.9 104.52 -143.78 101.94 -145.61 98.5 -140.7 100.99 -138.92 103.44 -137.11 105.86 -135.25 106.36 -131.01 102.58 -126.35 98.47 -125.8 96.21 -127.53 93.93 -129.22 93.34 -133.32 "/><polyline fill="none" stroke="#444" stroke-width="0.5" stroke-linecap="square" stroke-miterlimit="1"  points="113.39 -116.75 109.24 -116.56 107.15 -118.48 107 -122.63 114.89 -131.67 119.23 -131.83 121.55 -129.69 121.75 -125.36 113.39 -116.75 "/><polyline fill="none" stroke="#444" stroke-width="0.5" stroke-linecap="square" stroke-miterlimit="1"  points="131.69 -105.52 133.54 -103.17 135.35 -100.78 137.12 -98.35 141.32 -97.61 143.79 -99.31 144.44 -103.6 142.57 -106.15 140.66 -108.67 138.71 -111.15 124.66 -99.9 "/><polyline fill="none" stroke="#444" stroke-width="0.5" stroke-linecap="square" stroke-miterlimit="1"  points="134.59 -86.06 144.7 -92.52 "/><polyline fill="none" stroke="#444" stroke-width="0.5" stroke-linecap="square" stroke-miterlimit="1"  points="147.23 -94.14 149.75 -95.75 "/><polyline fill="none" stroke="#444" stroke-width="0.5" stroke-linecap="square" stroke-miterlimit="1"  points="145.67 -72.58 141.7 -73.77 143 -77.71 156.18 -84.87 "/><polyline fill="none" stroke="#444" stroke-width="0.5" stroke-linecap="square" stroke-miterlimit="1"  points="153.73 -76.59 152.34 -79.31 150.91 -82.01 149.43 -84.68 147.9 -87.32 "/><polyline fill="none" stroke="#444" stroke-width="0.5" stroke-linecap="square" stroke-miterlimit="1"  points="149.76 -55.61 148.75 -58.26 147.69 -60.9 146.58 -63.52 148.16 -67.35 153.62 -69.84 157.59 -68.29 158.78 -65.47 159.92 -62.64 161.01 -59.79 "/><polyline fill="none" stroke="#444" stroke-width="0.5" stroke-linecap="square" stroke-miterlimit="1"  points="157.34 -52.14 161.1 -50.23 164.85 -48.2 165.68 -45.26 163.55 -41.57 154.83 -39.35 "/><polyline fill="none" stroke="#444" stroke-width="0.5" stroke-linecap="square" stroke-miterlimit="1"  points="151.64 -50.25 168.73 -55.91 "/><polyline fill="none" stroke="#444" stroke-width="0.5" stroke-linecap="square" stroke-miterlimit="1"  points="158.51 -19.83 158.84 -17.01 159.12 -14.18 159.35 -11.35 162.52 -8.68 174.5 -9.32 177.3 -12.63 177.05 -15.78 176.74 -18.92 176.38 -22.06 "/><polyline fill="none" stroke="#444" stroke-width="0.5" stroke-linecap="square" stroke-miterlimit="1"  points="176.74 -18.92 158.84 -17.01 "/><polyline fill="none" stroke="#444" stroke-width="0.5" stroke-linecap="square" stroke-miterlimit="1"  points="171.51 9.16 171.64 6.11 171.72 3.05 171.75 0 171.72 -3.05 "/><polyline fill="none" stroke="#444" stroke-width="0.5" stroke-linecap="square" stroke-miterlimit="1"  points="165.51 8.84 165.65 5.89 165.72 2.95 165.75 0 165.72 -2.95 "/><polyline fill="none" stroke="#444" stroke-width="0.5" stroke-linecap="square" stroke-miterlimit="1"  points="163.63 26.41 164.08 23.49 164.47 20.57 164.81 17.65 165.1 14.71 168.79 18.07 172.41 21.57 175.96 25.19 158.14 22.64 "/><polyline fill="none" stroke="#444" stroke-width="0.5" stroke-linecap="square" stroke-miterlimit="1"  points="159.65 31.62 156.71 31.04 "/><polyline fill="none" stroke="#444" stroke-width="0.5" stroke-linecap="square" stroke-miterlimit="1"  points="170.1 40.03 172.27 43.78 154.83 39.35 "/><polyline fill="none" stroke="#444" stroke-width="0.5" stroke-linecap="square" stroke-miterlimit="1"  points="154.1 42.1 154.83 39.35 155.5 36.59 "/><polyline fill="none" stroke="#444" stroke-width="0.5" stroke-linecap="square" stroke-miterlimit="1"  points="169.69 52.91 168.73 55.91 167.71 58.9 166.63 61.88 165.51 64.83 158.2 58.74 150.72 52.94 "/><polyline fill="none" stroke="#444" stroke-width="0.5" stroke-linecap="square" stroke-miterlimit="1"  points="148.27 80.57 146.82 83.2 145.31 85.79 143.77 88.36 144.7 92.52 147.23 94.14 151.43 93.08 153.06 90.37 154.65 87.63 156.18 84.87 140.36 76.28 "/><polyline fill="none" stroke="#444" stroke-width="0.5" stroke-linecap="square" stroke-miterlimit="1"  points="134.03 107.4 135.91 105 137.76 102.57 139.56 100.1 141.32 97.61 "/><polyline fill="none" stroke="#444" stroke-width="0.5" stroke-linecap="square" stroke-miterlimit="1"  points="129.34 103.65 131.17 101.33 132.95 98.99 134.69 96.61 136.38 94.2 "/><polyline fill="none" stroke="#444" stroke-width="0.5" stroke-linecap="square" stroke-miterlimit="1"  points="132.4 114.06 132.59 118.39 119.16 106.4 "/><polyline fill="none" stroke="#444" stroke-width="0.5" stroke-linecap="square" stroke-miterlimit="1"  points="117.25 108.5 119.16 106.4 121.03 104.26 "/><polyline fill="none" stroke="#444" stroke-width="0.5" stroke-linecap="square" stroke-miterlimit="1"  points="105.03 120.37 107.15 118.48 109.24 116.56 111.3 114.6 113.32 112.6 117.57 116.83 117.57 121.05 115.4 123.12 113.19 125.16 112.92 129.41 114.89 131.67 119.23 131.83 121.55 129.69 123.84 127.51 123.96 123.17 "/><polyline fill="none" stroke="#444" stroke-width="0.5" stroke-linecap="square" stroke-miterlimit="1"  points="94.31 139.94 91.81 141.59 89.27 143.2 86.71 144.77 85.62 148.88 87.12 151.49 91.34 152.49 94.04 150.84 96.7 149.14 99.34 147.4 89.28 132.47 "/><polyline fill="none" stroke="#444" stroke-width="0.5" stroke-linecap="square" stroke-miterlimit="1"  points="74.67 141.23 77.47 146.53 77.56 153.24 77.44 159.99 72.07 155.9 66.87 151.66 64.44 146.17 "/><polyline fill="none" stroke="#444" stroke-width="0.5" stroke-linecap="square" stroke-miterlimit="1"  points="77.47 146.53 74.86 147.88 72.21 149.19 69.55 150.45 66.87 151.66 "/><polyline fill="none" stroke="#444" stroke-width="0.5" stroke-linecap="square" stroke-miterlimit="1"  points="52.16 163.64 55.06 162.68 57.94 161.68 60.81 160.62 63.66 159.52 "/><polyline fill="none" stroke="#444" stroke-width="0.5" stroke-linecap="square" stroke-miterlimit="1"  points="50.34 157.92 53.14 157 55.92 156.03 58.69 155.01 61.43 153.95 "/><polyline fill="none" stroke="#444" stroke-width="0.5" stroke-linecap="square" stroke-miterlimit="1"  points="32.04 156.5 34.81 155.91 37.58 155.27 40.33 154.57 43.07 153.83 44.69 159.61 42.61 163.28 39.7 164.01 36.77 164.69 34.44 168.26 35.04 171.2 38.74 173.48 41.81 172.76 44.88 171.99 47.12 168.28 "/><polyline fill="none" stroke="#444" stroke-width="0.5" stroke-linecap="square" stroke-miterlimit="1"  points="18.35 161.71 20.84 158.39 23.65 157.99 26.95 160.5 28.94 172.34 26.31 175.79 23.18 176.23 19.71 173.64 18.35 161.71 "/></g></g><g class="guides gearguides" opacity="0.2"><circle class="pitch" fill="none" stroke="#f00" stroke-miterlimit="10" cx="0" cy="0" r="208.33"/><circle class="outer" fill="none" stroke="#ccc" stroke-miterlimit="10" stroke-dasharray="2,2" cx="0" cy="0" r="216.67"/><circle class="base" fill="none" stroke="#00f" stroke-miterlimit="10" stroke-dasharray="2,2" cx="0" cy="0" r="195.77"/></g></svg>